<svg width="31" height="41" viewBox="0 0 31 41" fill="none" xmlns="http://www.w3.org/2000/svg">
<g id="Layer_1" clip-path="url(#clip0_74_9008)">
<path id="Vector" d="M23.2008 7.36701C22.1435 -1.81474 8.27605 -1.82264 7.19873 7.34436C3.10983 9.14701 0.307617 13.1678 0.307617 17.8432C0.307617 17.9575 0.308669 18.0723 0.312878 18.1866V18.1697V38.8293C0.312878 39.7378 1.04933 40.475 1.95675 40.475H28.6637C29.5712 40.474 30.3066 39.7378 30.3076 38.8293V18.1487C30.275 13.3484 27.396 9.22864 23.2771 7.3965L23.2024 7.36648L23.2008 7.36753V7.36701ZM18.548 4.81918C18.9241 5.16781 19.2345 5.58121 19.4607 6.04465L19.4712 6.06992C18.1824 5.76343 16.7016 5.58806 15.1814 5.58806C15.1025 5.58806 15.0236 5.58806 14.9447 5.58911C13.5338 5.60649 12.1698 5.7708 10.8573 6.06834L10.9873 6.04307C11.8999 4.59484 13.4896 3.64691 15.3008 3.64691C16.538 3.64691 17.6732 4.09033 18.5554 4.82656L18.5475 4.81971V4.81866L18.548 4.81918ZM20.2408 27.9687H10.0262V25.9938H20.2408V27.9687ZM10.0262 37.1847V31.2601H20.2408V37.1847H10.0262ZM27.0183 37.1847H23.528V24.3481C23.527 23.4397 22.7916 22.7035 21.8842 22.7024H8.38231C7.4749 22.7024 6.73844 23.4397 6.73844 24.3481V37.1847H3.59904V18.1513C3.52382 11.8749 9.44702 8.94689 14.9825 8.88001C15.0709 8.87896 15.1745 8.87738 15.2797 8.87738C17.3408 8.87738 19.3081 9.27867 21.1082 10.007L21.0041 9.97013C21.0251 9.97908 21.0488 9.98435 21.0714 9.99277C24.5233 11.183 26.9683 14.3848 27.0193 18.166V18.1729L27.0183 37.1852V37.1847ZM21.8842 14.803H8.73318C7.82577 14.803 7.08931 15.5403 7.08931 16.4487C7.08931 17.3571 7.82577 18.0944 8.73318 18.0944H21.8842C22.7916 18.0944 23.528 17.3571 23.528 16.4487C23.528 15.5403 22.7916 14.803 21.8842 14.803Z" fill="white" fill-opacity="0.15"/>
</g>
<defs>
<clipPath id="clip0_74_9008">
<rect width="30" height="40" fill="white" transform="translate(0.307617 0.475128)"/>
</clipPath>
</defs>
</svg>
