<svg width="26" height="28" viewBox="0 0 26 28" fill="none" xmlns="http://www.w3.org/2000/svg">
<g id="Layer_1" clip-path="url(#clip0_74_9039)">
<path id="Vector" d="M7.41032 10.2607C7.29716 10.0862 7.14486 9.94779 6.97348 9.84587V4.64162C7.73762 4.36217 8.28927 3.61967 8.28927 2.74082C8.28927 1.62437 7.40374 0.71582 6.31558 0.71582C5.22743 0.71582 4.3419 1.62437 4.3419 2.74082C4.3419 3.61967 4.89354 4.36183 5.65769 4.64162V9.84621C5.48631 9.94847 5.33401 10.0865 5.22085 10.261C4.72644 11.0207 0.394531 17.7991 0.394531 21.6408C0.394531 24.9905 3.05078 27.7158 6.31558 27.7158C9.58039 27.7158 12.2366 24.9905 12.2366 21.6408C12.2366 17.7991 7.90473 11.0207 7.41032 10.2607ZM6.31558 2.06582C6.67874 2.06582 6.97348 2.36788 6.97348 2.74082C6.97348 3.11376 6.67874 3.41582 6.31558 3.41582C5.95243 3.41582 5.65769 3.11342 5.65769 2.74082C5.65769 2.36822 5.95243 2.06582 6.31558 2.06582ZM6.31558 11.1611C6.31558 11.1611 9.60506 16.2236 9.60506 18.7549C9.60506 20.6192 8.13236 22.1299 6.31558 22.1299C4.49881 22.1299 3.02611 20.6189 3.02611 18.7549C3.02611 16.2236 6.31558 11.1611 6.31558 11.1611ZM6.31558 26.3658C3.77216 26.3658 1.71032 24.2504 1.71032 21.6408C1.71032 21.1815 1.79025 20.6607 1.92512 20.1055C2.49519 22.0505 4.23664 23.4802 6.31558 23.4802C8.39453 23.4802 10.1356 22.0505 10.706 20.1055C10.8406 20.6607 10.9208 21.1815 10.9208 21.6408C10.9208 24.2504 8.859 26.3658 6.31558 26.3658Z" fill="white" fill-opacity="0.15"/>
<path id="Vector_2" d="M20.5682 10.2607C20.4547 10.0862 20.3028 9.94779 20.1314 9.84587V4.64162C20.8955 4.36217 21.4472 3.61967 21.4472 2.74082C21.4472 1.62437 20.5616 0.71582 19.4735 0.71582C18.3853 0.71582 17.4998 1.62437 17.4998 2.74082C17.4998 3.61967 18.0514 4.36183 18.8156 4.64162V9.84621C18.6442 9.94847 18.4919 10.0865 18.3787 10.261C17.8843 11.0204 13.5524 17.7991 13.5524 21.6405C13.5524 24.9902 16.2087 27.7155 19.4735 27.7155C22.7383 27.7155 25.3945 24.9902 25.3945 21.6405C25.3945 17.7987 21.0626 11.0204 20.5682 10.2603V10.2607ZM19.4735 2.06582C19.8366 2.06582 20.1314 2.36788 20.1314 2.74082C20.1314 3.11376 19.8366 3.41582 19.4735 3.41582C19.1103 3.41582 18.8156 3.11342 18.8156 2.74082C18.8156 2.36822 19.1103 2.06582 19.4735 2.06582ZM19.4735 11.1611C19.4735 11.1611 22.763 16.2236 22.763 18.7549C22.763 20.6189 21.2903 22.1299 19.4735 22.1299C17.6567 22.1299 16.184 20.6189 16.184 18.7549C16.184 16.2236 19.4735 11.1611 19.4735 11.1611ZM19.4735 26.3658C16.9301 26.3658 14.8682 24.2504 14.8682 21.6408C14.8682 21.1815 14.9482 20.6607 15.083 20.1055C15.6531 22.0505 17.3945 23.4802 19.4735 23.4802C21.5524 23.4802 23.2935 22.0502 23.8639 20.1055C23.9985 20.6607 24.0787 21.1815 24.0787 21.6408C24.0787 24.2504 22.0169 26.3658 19.4735 26.3658Z" fill="white" fill-opacity="0.15"/>
</g>
<defs>
<clipPath id="clip0_74_9039">
<rect width="25" height="27" fill="white" transform="translate(0.394531 0.71582)"/>
</clipPath>
</defs>
</svg>
