<svg width="29" height="36" viewBox="0 0 29 36" fill="none" xmlns="http://www.w3.org/2000/svg">
<g id="Layer_1" clip-path="url(#clip0_74_9034)">
<path id="Vector" d="M23.9951 9.3376C23.6334 9.28022 23.2759 9.28751 22.9345 9.35039L23.126 8.14308C23.3964 6.4384 22.2267 4.8309 20.5188 4.55998C20.1158 4.49607 19.7185 4.51201 19.3432 4.59626C19.1926 3.22817 18.1419 2.07007 16.7158 1.84385C15.2897 1.61764 13.9322 2.39375 13.3656 3.64847C13.0344 3.45216 12.6615 3.31403 12.2589 3.25018C10.551 2.97926 8.94128 4.14588 8.67088 5.85057L7.82551 11.1799C7.52064 11.0145 7.18302 10.897 6.82085 10.8395C5.11293 10.5686 3.50321 11.7352 3.23281 13.4399L2.14299 20.3104C1.85535 22.1238 1.99683 23.9229 2.56365 25.6576C3.04899 27.1435 3.84762 28.5346 4.8861 29.7107L4.63851 31.2715C4.5482 31.8408 4.93732 32.3756 5.50768 32.4661L17.8982 34.4315C18.4685 34.522 19.004 34.1339 19.0943 33.5646L19.3568 31.9097C22.3071 30.0809 24.3757 26.9629 24.9296 23.4709L26.6031 12.9208C26.8735 11.2161 25.7038 9.60865 23.9959 9.33773L23.9951 9.3376ZM18.9961 7.48798C19.0862 6.91989 19.6227 6.53073 20.1922 6.62108C20.7618 6.71142 21.1516 7.2471 21.0614 7.8156L19.9171 15.0298L17.8521 14.7023L18.9965 7.48805L18.9961 7.48798ZM15.1927 4.77179C15.2828 4.20369 15.8193 3.81454 16.3889 3.90488C16.9584 3.99523 17.3482 4.53091 17.258 5.0994L16.1137 12.3136L14.0488 11.9861L15.1931 4.77185L15.1927 4.77179ZM10.7355 6.17766C10.8256 5.60956 11.3621 5.22041 11.9317 5.31075C12.5012 5.4011 12.891 5.93678 12.8008 6.50527L11.6565 13.7195L9.59154 13.3919L10.7359 6.17772L10.7355 6.17766ZM5.29736 13.7674C5.38747 13.1993 5.92395 12.8102 6.49353 12.9005C7.0631 12.9909 7.45288 13.5265 7.3627 14.095L6.87228 17.1868L4.80733 16.8592L5.29776 13.7675L5.29736 13.7674ZM22.8639 23.1432C22.3818 26.1825 20.522 28.8768 17.889 30.3505C17.6102 30.5067 17.418 30.7816 17.368 31.0969L17.1921 32.2062L6.86655 30.5683L7.02992 29.5384C7.08131 29.2144 6.97697 28.8848 6.74821 28.6489C4.66661 26.5027 3.74042 23.5827 4.2076 20.6375L4.48007 18.9198L7.57769 19.4112C8.14805 19.5016 8.68355 19.1135 8.77386 18.5442L9.26428 15.4525L12.3619 15.9439C12.9323 16.0343 13.4678 15.6462 13.5581 15.0769L13.7216 14.0462L15.7865 14.3738L15.623 15.4045C15.5327 15.9738 15.9218 16.5085 16.4922 16.599L19.5898 17.0904L19.4263 18.1211C19.336 18.6904 19.7251 19.2251 20.2955 19.3156L23.3931 19.807L22.8639 23.1429L22.8639 23.1432ZM23.72 17.7459L21.6551 17.4184L22.4724 12.2656C22.5625 11.6975 23.099 11.3084 23.6686 11.3987C24.2382 11.489 24.628 12.0247 24.5378 12.5932L23.7204 17.746L23.72 17.7459Z" fill="white" fill-opacity="0.15"/>
<path id="Vector_2" d="M15.6745 21.7526L11.5442 21.0974C9.83632 20.8265 8.2266 21.9931 7.9562 23.6978L7.62927 25.7588C7.53897 26.3281 7.92808 26.8629 8.49845 26.9533L16.759 28.2637C17.3294 28.3541 17.8649 27.966 17.9552 27.3968L18.2821 25.3357C18.5525 23.631 17.3829 22.0235 15.6749 21.7526L15.6745 21.7526ZM16.0533 26.0388L9.85805 25.0561L10.0215 24.0254C10.1117 23.4573 10.6481 23.0681 11.2177 23.1585L15.348 23.8137C15.9172 23.9039 16.3074 24.4397 16.2172 25.0082L16.0537 26.0389L16.0533 26.0388Z" fill="white" fill-opacity="0.15"/>
</g>
<defs>
<clipPath id="clip0_74_9034">
<rect width="23" height="32" fill="white" transform="translate(5.35742 0.0421448) rotate(9.01337)"/>
</clipPath>
</defs>
</svg>
