<svg width="73" height="37" viewBox="0 0 73 37" fill="none" xmlns="http://www.w3.org/2000/svg">
<path d="M68.3723 0.165092H3.68778C1.66832 0.165092 0.0300293 1.78134 0.0300293 3.77364V32.5565C0.0300293 34.5488 1.66832 36.1651 3.68778 36.1651H68.3723C70.3917 36.1651 72.03 34.5488 72.03 32.5565V3.77364C72.03 1.78134 70.3917 0.165092 68.3723 0.165092ZM28.6317 25.989H23.8054L18.6846 10.3412H23.1259L26.208 21.1156L29.3113 10.3412H33.7526L28.6317 25.989ZM39.0544 25.989H34.9982V10.3412H39.0544V25.989ZM51.743 19.7519C50.6553 20.7794 49.3115 21.2941 47.7098 21.2941H45.6018V25.989H41.5455V10.3412H47.7079C49.3096 10.3412 50.6533 10.8559 51.741 11.8834C52.8287 12.9109 53.3716 14.2232 53.3716 15.8186C53.3716 17.4139 52.8287 18.7244 51.741 19.7538L51.743 19.7519ZM47.7098 14.1625H45.6018V17.4937H47.7098C48.1622 17.4937 48.5434 17.338 48.8533 17.0246C49.1633 16.7112 49.3173 16.3086 49.3173 15.8167C49.3173 15.3248 49.1614 14.9259 48.8533 14.6202C48.5434 14.3144 48.1622 14.1625 47.7098 14.1625Z" fill="url(#paint0_linear_1859_1516)"/>
<defs>
<linearGradient id="paint0_linear_1859_1516" x1="0.0300293" y1="0.165092" x2="72.03" y2="36.1651" gradientUnits="userSpaceOnUse">
<stop stop-color="#FFCA0E"/>
<stop offset="1" stop-color="#C58424"/>
</linearGradient>
</defs>
</svg>
