<svg width="39" height="14" viewBox="0 0 39 14" fill="none" xmlns="http://www.w3.org/2000/svg">
<g id="_2" clip-path="url(#clip0_74_9048)">
<path id="Vector" d="M38.1123 0.215775C37.0269 0.287925 33.3333 0.644455 28.5542 0.644455C21.8201 0.644455 21.385 3.00055 19.3567 3.00055C17.041 3.00055 17.1859 0.644455 10.1606 0.644455C5.38105 0.644923 1.68788 0.287925 0.602021 0.215775C-0.179364 0.16424 0.891774 7.78537 4.07764 10.6428C6.48972 12.8058 12.3332 14.6438 16.8957 11.6425C18.6342 10.2872 19.3567 10.2872 19.3567 10.2872C19.3567 10.2872 20.0825 10.2872 21.8201 11.6425C26.3811 14.6438 32.226 12.8058 34.6371 10.6428C37.8221 7.78583 38.8951 0.164708 38.1123 0.215775ZM15.3823 6.66471C11.9936 10.3926 6.45409 7.82097 6.38902 4.09216C12.6444 3.12892 15.6284 6.39345 15.3823 6.66471ZM23.332 6.66471C23.086 6.39345 26.069 3.12939 32.3253 4.09216C32.2602 7.82097 26.7216 10.3921 23.332 6.66471Z" fill="white" fill-opacity="0.15"/>
</g>
<defs>
<clipPath id="clip0_74_9048">
<rect width="38" height="13" fill="white" transform="translate(0.357422 0.21582)"/>
</clipPath>
</defs>
</svg>
