<svg width="29" height="35" viewBox="0 0 29 35" fill="none" xmlns="http://www.w3.org/2000/svg">
<g id="Layer_1" clip-path="url(#clip0_74_9067)">
<path id="Vector" d="M28.3076 1.62764C28.3076 0.774085 27.6113 0.0823364 26.7522 0.0823364H1.86302C1.00388 0.0823364 0.307617 0.774085 0.307617 1.62764V32.537C0.307617 33.3906 1.00388 34.0823 1.86302 34.0823H26.7517C27.6109 34.0823 28.3071 33.3906 28.3071 32.537V1.62764H28.3076ZM25.1964 12.1814C23.8682 11.7122 22.8233 10.6742 22.3511 9.35464H25.1964V12.1814ZM25.1964 6.26403H15.863V3.17295H25.1964V6.26403ZM3.41888 3.17341H12.7522V6.26449H3.41888V3.17341ZM3.41888 9.35511H6.26415C5.79188 10.6746 4.74702 11.7122 3.41888 12.1819V9.35511ZM15.8635 30.9917V20.1736C15.8635 19.3201 15.1672 18.6283 14.3081 18.6283C13.449 18.6283 12.7527 19.3201 12.7527 20.1736V30.9917H3.41888V15.3824C6.47135 14.7574 8.85648 12.3878 9.48555 9.35511H12.7522V12.4462C12.7522 13.2997 13.4485 13.9915 14.3076 13.9915C15.1668 13.9915 15.863 13.2997 15.863 12.4462V9.35511H19.1297C19.7587 12.3878 22.1439 14.7574 25.1964 15.3824V30.9917H15.863H15.8635Z" fill="white" fill-opacity="0.15"/>
</g>
<defs>
<clipPath id="clip0_74_9067">
<rect width="28" height="34" fill="white" transform="translate(0.307617 0.0823364)"/>
</clipPath>
</defs>
</svg>
