<svg width="73" height="37" viewBox="0 0 73 37" fill="none" xmlns="http://www.w3.org/2000/svg">
<path id="Vector" d="M68.3723 0.521568H3.68778C1.66832 0.521568 0.0300293 2.13782 0.0300293 4.13011V32.913C0.0300293 34.9053 1.66832 36.5216 3.68778 36.5216H68.3723C70.3917 36.5216 72.03 34.9053 72.03 32.913V4.13011C72.03 2.13782 70.3917 0.521568 68.3723 0.521568ZM28.6317 26.3455H23.8054L18.6846 10.6977H23.1259L26.208 21.472L29.3113 10.6977H33.7526L28.6317 26.3455ZM39.0544 26.3455H34.9982V10.6977H39.0544V26.3455ZM51.743 20.1084C50.6553 21.1359 49.3115 21.6506 47.7098 21.6506H45.6018V26.3455H41.5455V10.6977H47.7079C49.3096 10.6977 50.6533 11.2124 51.741 12.2398C52.8287 13.2673 53.3716 14.5797 53.3716 16.1751C53.3716 17.7704 52.8287 19.0809 51.741 20.1103L51.743 20.1084ZM47.7098 14.5189H45.6018V17.8502H47.7098C48.1622 17.8502 48.5434 17.6945 48.8533 17.3811C49.1633 17.0677 49.3173 16.6651 49.3173 16.1732C49.3173 15.6813 49.1614 15.2824 48.8533 14.9766C48.5434 14.6709 48.1622 14.5189 47.7098 14.5189Z" fill="url(#paint0_linear_1859_1518)"/>
<defs>
<linearGradient id="paint0_linear_1859_1518" x1="0.0300293" y1="0.521568" x2="72.03" y2="36.5216" gradientUnits="userSpaceOnUse">
<stop stop-color="#E8D8FF"/>
<stop offset="1" stop-color="#A281CF"/>
</linearGradient>
</defs>
</svg>
