<svg width="20" height="25" viewBox="0 0 20 25" fill="none" xmlns="http://www.w3.org/2000/svg">
<g id="ring" clip-path="url(#clip0_74_9029)">
<path id="Vector" d="M9.81734 10.4751C9.60057 10.4759 9.38941 10.4072 9.21631 10.2787L6.46476 8.2625C6.33854 8.17176 6.23556 8.05353 6.16384 7.91723C6.09211 7.78092 6.05325 7.63009 6.05084 7.4769V3.43107C6.05245 3.27749 6.09051 3.12626 6.16264 2.98996C6.23436 2.85366 6.33814 2.73542 6.46516 2.64547L9.21631 0.6422C9.38981 0.514541 9.60057 0.445801 9.81734 0.445801C10.0341 0.445801 10.2449 0.514541 10.4184 0.6422L13.1699 2.67179C13.297 2.76174 13.4003 2.87997 13.4725 3.01628C13.5442 3.15258 13.5826 3.3038 13.5842 3.45739V7.4769C13.5818 7.63009 13.543 7.78092 13.4713 7.91723C13.3995 8.05353 13.2966 8.17176 13.1703 8.2625L10.4188 10.2787C10.2457 10.4072 10.0345 10.4759 9.81775 10.4751H9.81734ZM8.0543 6.97922L9.81734 8.28842L11.5804 6.97922V3.91539L9.81734 2.63212L8.0543 3.94132V6.97883V6.97922Z" fill="white" fill-opacity="0.15"/>
<path id="Vector_2" d="M9.81735 24.4458C7.9393 24.4309 6.10734 23.8727 4.55146 22.8412C2.99557 21.8097 1.78508 20.3509 1.07185 18.6477C0.358618 16.9445 0.1743 15.0724 0.542135 13.2668C0.90997 11.4611 1.81353 9.80227 3.13942 8.49817C3.32173 8.33438 3.56014 8.24364 3.80737 8.24364C4.0546 8.24364 4.29301 8.33438 4.47532 8.49817C4.66285 8.6824 4.76823 8.93182 4.76823 9.19225C4.76823 9.45268 4.66285 9.7021 4.47532 9.88633C3.42631 10.921 2.71348 12.2368 2.42619 13.6678C2.13929 15.0992 2.29115 16.5816 2.86254 17.9285C3.43393 19.2754 4.39959 20.4259 5.63733 21.2355C6.87507 22.045 8.32958 22.4767 9.81775 22.4767C11.3059 22.4767 12.7604 22.0446 13.9982 21.2355C15.2359 20.4259 16.2016 19.2754 16.773 17.9285C17.3443 16.5816 17.4962 15.0992 17.2093 13.6678C16.9224 12.2364 16.2092 10.9206 15.1602 9.88633C14.9726 9.7021 14.8673 9.45268 14.8673 9.19225C14.8673 8.93182 14.9726 8.6824 15.1602 8.49817C15.2523 8.40547 15.3625 8.33202 15.4839 8.28174C15.6053 8.23146 15.736 8.20554 15.8682 8.20554C16.0004 8.20554 16.1306 8.23146 16.2525 8.28174C16.3743 8.33202 16.4841 8.40547 16.5762 8.49817C17.9069 9.80698 18.8117 11.4732 19.1771 13.286C19.5421 15.0988 19.351 16.9771 18.6282 18.6834C17.9049 20.3902 16.682 21.8482 15.1141 22.8738C13.5458 23.8994 11.703 24.4462 9.81815 24.4458H9.81735Z" fill="white" fill-opacity="0.15"/>
</g>
<defs>
<clipPath id="clip0_74_9029">
<rect width="19" height="24" fill="white" transform="translate(0.357422 0.445801)"/>
</clipPath>
</defs>
</svg>
