<svg width="73" height="37" viewBox="0 0 73 37" fill="none" xmlns="http://www.w3.org/2000/svg">
<path id="Vector" d="M68.3723 0.343571H3.68778C1.66832 0.343571 0.0300293 1.95982 0.0300293 3.95212V32.735C0.0300293 34.7273 1.66832 36.3436 3.68778 36.3436H68.3723C70.3917 36.3436 72.03 34.7273 72.03 32.735V3.95212C72.03 1.95982 70.3917 0.343571 68.3723 0.343571ZM28.6317 26.1675H23.8054L18.6846 10.5197H23.1259L26.208 21.294L29.3113 10.5197H33.7526L28.6317 26.1675ZM39.0544 26.1675H34.9982V10.5197H39.0544V26.1675ZM51.743 19.9304C50.6553 20.9579 49.3115 21.4726 47.7098 21.4726H45.6018V26.1675H41.5455V10.5197H47.7079C49.3096 10.5197 50.6533 11.0344 51.741 12.0619C52.8287 13.0893 53.3716 14.4017 53.3716 15.9971C53.3716 17.5924 52.8287 18.9029 51.741 19.9323L51.743 19.9304ZM47.7098 14.3409H45.6018V17.6722H47.7098C48.1622 17.6722 48.5434 17.5165 48.8533 17.2031C49.1633 16.8897 49.3173 16.4871 49.3173 15.9952C49.3173 15.5033 49.1614 15.1044 48.8533 14.7986C48.5434 14.4929 48.1622 14.3409 47.7098 14.3409Z" fill="url(#paint0_linear_1859_1517)"/>
<defs>
<linearGradient id="paint0_linear_1859_1517" x1="0.0300293" y1="0.343571" x2="72.03" y2="36.3436" gradientUnits="userSpaceOnUse">
<stop stop-color="#AAAAAA"/>
<stop offset="1" stop-color="#E2E2E2"/>
</linearGradient>
</defs>
</svg>
