<svg width="30" height="37" viewBox="0 0 30 37" fill="none" xmlns="http://www.w3.org/2000/svg">
<g id="Layer_1" clip-path="url(#clip0_74_9012)">
<path id="Vector" d="M28.6324 11.4666H28.2986C27.9815 11.4666 27.0164 11.4666 26.4426 9.78822C26.1088 8.81088 26.095 7.79697 26.095 7.79346V1.18057C26.095 0.774863 25.7702 0.445801 25.3699 0.445801H20.8675C20.624 0.445801 20.3971 0.569551 20.2625 0.775566C20.1286 0.981582 20.105 1.24174 20.2 1.46885C20.5032 2.19025 20.6566 2.95807 20.6566 3.7526C20.6566 6.9933 18.0547 9.63002 14.8567 9.63002C11.6588 9.63002 9.05687 6.9933 9.05687 3.7526C9.05687 2.95877 9.21021 2.19025 9.51342 1.46885C9.60847 1.24174 9.58558 0.981582 9.45097 0.775566C9.31706 0.569551 9.08948 0.445801 8.84594 0.445801H4.34496C4.15207 0.445801 3.9675 0.523848 3.83151 0.662363C3.69552 0.800879 3.61919 0.988613 3.62058 1.18408L3.64972 7.78994C3.64903 7.85252 3.62683 8.8376 3.30211 9.78822C2.72829 11.4666 1.76315 11.4666 1.44607 11.4666H1.08388C0.682142 11.4666 0.357422 11.7949 0.357422 12.2006V33.5067C0.357422 35.1274 1.65838 36.4458 3.2577 36.4458H26.4578C28.0572 36.4458 29.3581 35.1274 29.3581 33.5067V12.2006C29.3581 11.7949 29.0334 11.4659 28.633 11.4659L28.6324 11.4666ZM27.9073 33.5074C27.9073 34.3174 27.2565 34.977 26.4571 34.977H3.2577C2.45839 34.977 1.80756 34.3174 1.80756 33.5074V27.63H27.9073V33.5074ZM27.9073 26.1605H1.80756V19.1806H21.3824V17.711H1.80756V16.6092H27.9073V26.1605ZM27.9073 15.1404H1.80756V12.9171C3.1335 12.7737 4.14652 11.8336 4.68355 10.234C5.08668 9.03307 5.09917 7.8483 5.09917 7.79838V7.78994L5.07349 1.91533H7.83708C7.68513 2.51088 7.60812 3.12541 7.60812 3.75189C7.60812 7.8033 10.8602 11.0988 14.8581 11.0988C18.8561 11.0988 22.1081 7.8033 22.1081 3.75189C22.1081 3.12541 22.0311 2.51018 21.8791 1.91533H24.6455V7.79768C24.6455 7.8476 24.658 9.03236 25.0611 10.2333C25.594 11.8217 26.5966 12.7596 27.908 12.9129V15.1397L27.9073 15.1404Z" fill="white" fill-opacity="0.15"/>
<path id="Vector_2" d="M19.9322 33.5067H25.007C25.4074 33.5067 25.7321 33.1777 25.7321 32.772V29.8329C25.7321 29.4272 25.4074 29.0981 25.007 29.0981H19.9322C19.5319 29.0981 19.2072 29.4272 19.2072 29.8329V32.772C19.2072 33.1777 19.5319 33.5067 19.9322 33.5067ZM20.6573 30.5677H24.2819V32.0372H20.6573V30.5677Z" fill="white" fill-opacity="0.15"/>
<path id="Vector_3" d="M18.1199 31.6702H16.3076V33.1397H18.1199V31.6702Z" fill="white" fill-opacity="0.15"/>
<path id="Vector_4" d="M18.1199 29.4659H16.3076V30.9354H18.1199V29.4659Z" fill="white" fill-opacity="0.15"/>
</g>
<defs>
<clipPath id="clip0_74_9012">
<rect width="29" height="36" fill="white" transform="translate(0.357422 0.445801)"/>
</clipPath>
</defs>
</svg>
