<svg width="37" height="26" viewBox="0 0 37 26" fill="none" xmlns="http://www.w3.org/2000/svg">
<path fill-rule="evenodd" clip-rule="evenodd" d="M16.5127 0.0228347C16.3537 0.0379321 15.8171 0.086028 15.3203 0.129739C11.8079 0.438588 8.6739 1.44206 7.38193 2.67149C6.57588 3.43851 5.77865 4.7696 4.94593 6.73873L4.56589 7.63738L2.59007 7.67333C0.840232 7.70517 0.592217 7.72415 0.421742 7.83933C0.214918 7.97901 0 8.36184 0 8.59053C0 8.89255 0.591205 11.5287 0.693895 11.6846C0.913799 12.0185 1.2145 12.1301 1.89509 12.1304L2.52547 12.1306L2.14419 12.6878C1.71913 13.3089 1.36401 14.0992 1.17764 14.8389C0.989895 15.5844 1.01121 17.2295 1.21854 17.9899C1.50016 19.0227 2.12743 20.1365 2.77522 20.7538L3.03516 21.0016L3.03675 22.9466C3.03848 25.1117 3.06854 25.2758 3.53401 25.6655C3.92316 25.9912 4.1479 26.0179 6.29289 25.993L8.28598 25.9699L8.54613 25.7724C9.07902 25.3678 9.13756 25.2162 9.17773 24.1367L9.21387 23.1661H18.5H27.7861L27.8223 24.1367C27.8624 25.2162 27.921 25.3678 28.4539 25.7724L28.714 25.9699L30.7071 25.993C32.8521 26.0179 33.0768 25.9912 33.466 25.6655C33.9296 25.2773 33.9615 25.1064 33.9633 22.9965L33.9648 21.1014L34.3146 20.7206C35.0252 19.9472 35.4918 19.0883 35.7822 18.0192C36.0106 17.1786 36.0119 15.5986 35.7849 14.7702C35.5848 14.0398 35.154 13.1416 34.7344 12.58L34.3987 12.1306L35.067 12.1304C35.7889 12.1301 36.0824 12.0242 36.3069 11.6834C36.4115 11.5245 37 8.90376 37 8.59664C37 8.36241 36.7873 7.98052 36.5783 7.83933C36.4078 7.72415 36.1597 7.70517 34.4091 7.67333L32.4325 7.63738L32.0575 6.73873C31.2299 4.755 30.5554 3.62716 29.6687 2.74496C29.1676 2.24632 28.9717 2.10958 28.2559 1.75882C26.6399 0.966925 24.7045 0.46792 22.041 0.156554C21.1247 0.0494349 17.2255 -0.0448878 16.5127 0.0228347ZM21.8264 2.95978C24.2264 3.25195 25.9153 3.69567 27.1357 4.35449C27.802 4.71417 28.2052 5.21411 28.798 6.41521C29.2218 7.27368 29.918 8.95164 29.918 9.11434C29.918 9.15776 25.7099 9.18307 18.5 9.18307C10.3954 9.18307 7.08203 9.16063 7.08203 9.10571C7.08203 9.06308 7.22483 8.66681 7.39942 8.22503C8.09498 6.46474 8.80239 5.15789 9.29061 4.73142C10.3431 3.81213 13.1427 3.08839 16.6572 2.82707C17.4808 2.76581 20.969 2.85539 21.8264 2.95978ZM8.49598 13.9342C10.7023 14.3363 11.5566 17.0321 9.97613 18.6044C8.89337 19.6815 7.1496 19.6815 6.06684 18.6044C4.51797 17.0635 5.27814 14.4311 7.40723 13.9628C7.95955 13.8414 7.98326 13.8408 8.49598 13.9342ZM30.0345 14.0824C31.5044 14.6237 32.2102 16.3848 31.5306 17.8157C30.8335 19.2834 29.1147 19.831 27.6398 19.0551C27.2868 18.8694 26.7308 18.2917 26.538 17.9102C26.0068 16.8593 26.2194 15.5338 27.0521 14.7055C27.8343 13.9274 28.9693 13.6902 30.0345 14.0824Z" fill="white"/>
</svg>
