<svg width="21" height="34" viewBox="0 0 21 34" fill="none" xmlns="http://www.w3.org/2000/svg">
<g id="Layer_1" clip-path="url(#clip0_74_9056)">
<path id="Vector" d="M13.8577 33.4458H7.93189C5.68522 33.4458 3.85767 31.5524 3.85767 29.2247V23.8102C3.85767 23.1743 4.355 22.659 4.96878 22.659C5.58255 22.659 6.07989 23.1743 6.07989 23.8102V29.2247C6.07989 30.2824 6.91055 31.1435 7.93189 31.1435H13.8577C14.879 31.1435 15.7097 30.2829 15.7097 29.2247V23.8102C15.7097 23.1743 16.207 22.659 16.8208 22.659C17.4346 22.659 17.9319 23.1743 17.9319 23.8102V29.2247C17.9319 31.5519 16.1043 33.4458 13.8577 33.4458Z" fill="white" fill-opacity="0.15"/>
<path id="Vector_2" d="M16.8203 11.2326C16.2065 11.2326 15.7092 10.7173 15.7092 10.0814V4.66687C15.7092 3.60872 14.8785 2.74812 13.8572 2.74812H7.9314C6.91007 2.74812 6.0794 3.60872 6.0794 4.66687V10.0814C6.0794 10.7173 5.58207 11.2326 4.96829 11.2326C4.35451 11.2326 3.85718 10.7173 3.85718 10.0814V4.66687C3.85762 2.33922 5.68518 0.445801 7.9314 0.445801H13.8572C16.1038 0.445801 17.9314 2.33922 17.9314 4.66687V10.0814C17.9314 10.7173 17.4341 11.2326 16.8203 11.2326Z" fill="white" fill-opacity="0.15"/>
<path id="Vector_3" d="M10.8945 27.306C8.22342 27.306 5.71231 26.2285 3.82342 24.2715C1.93453 22.315 0.894531 19.713 0.894531 16.9456C0.894531 14.1782 1.93453 11.5766 3.82342 9.6196C5.71231 7.66264 8.22342 6.58515 10.8945 6.58515C13.5656 6.58515 16.0768 7.66264 17.9656 9.6196C19.8545 11.5766 20.8945 14.1782 20.8945 16.9456C20.8945 19.713 19.8545 22.3146 17.9656 24.2715C16.0768 26.2285 13.5656 27.306 10.8945 27.306ZM10.8945 8.88747C6.60564 8.88747 3.11675 12.5021 3.11675 16.9456C3.11675 21.389 6.60564 25.0037 10.8945 25.0037C15.1834 25.0037 18.6723 21.389 18.6723 16.9456C18.6723 12.5021 15.1834 8.88747 10.8945 8.88747Z" fill="white" fill-opacity="0.15"/>
<path id="Vector_4" d="M13.8577 18.0967H10.8946C10.2808 18.0967 9.78345 17.5815 9.78345 16.9456V13.8757C9.78345 13.2398 10.2808 12.7245 10.8946 12.7245C11.5083 12.7245 12.0057 13.2398 12.0057 13.8757V15.7944H13.8577C14.4714 15.7944 14.9688 16.3097 14.9688 16.9456C14.9688 17.5815 14.4714 18.0967 13.8577 18.0967Z" fill="white" fill-opacity="0.15"/>
</g>
<defs>
<clipPath id="clip0_74_9056">
<rect width="20" height="33" fill="white" transform="translate(0.894531 0.445801)"/>
</clipPath>
</defs>
</svg>
