<svg width="38" height="16" viewBox="0 0 38 16" fill="none" xmlns="http://www.w3.org/2000/svg">
<g id="sunglasses" clip-path="url(#clip0_74_9023)">
<g id="sunglasses_2">
<g id="sunglasses 2">
<path id="Combined Shape" d="M23.281 5.205C24.316 3.72058 25.9921 2.82059 27.8164 2.82059C30.8817 2.82059 33.3664 5.33887 33.3664 8.44552C33.3664 11.5522 30.8817 14.0704 27.8164 14.0704C24.7512 14.0704 22.2853 11.5702 22.2664 8.48039C22.2753 8.22896 22.1854 7.97471 21.9967 7.78346C20.521 6.28611 18.3287 5.95593 16.5372 6.79291C15.7946 3.44608 12.8437 0.945801 9.31836 0.945801C5.54438 0.945801 2.43084 3.80889 1.97519 7.50841H0.992289C0.481691 7.50841 0.0671082 7.92803 0.0671082 8.44608C0.0671082 8.96414 0.481136 9.38376 0.992289 9.38376H1.97519C2.43029 13.0833 5.54438 15.9464 9.3178 15.9464C12.186 15.9464 14.7596 14.2752 15.9839 11.704C16.2059 11.2377 16.0127 10.6775 15.5526 10.4525C15.0926 10.2275 14.5398 10.4232 14.3178 10.8896C13.3993 12.8183 11.469 14.0721 9.3178 14.0721C6.25255 14.0721 3.76783 11.5539 3.76783 8.44721C3.76783 5.34056 6.25255 2.82228 9.3178 2.82228C12.3831 2.82228 14.8517 5.32481 14.8678 8.41683C14.86 8.66714 14.9499 8.9197 15.1386 9.11039C15.4999 9.47601 16.0854 9.47601 16.4467 9.10926C16.4523 9.10364 16.4584 9.09801 16.4639 9.09182M20.4283 8.87414C20.6475 12.8167 23.8726 15.9458 27.8164 15.9458C31.7602 15.9458 34.7039 13.0833 35.159 9.38376H36.1419C36.6525 9.38376 37.0671 8.96414 37.0671 8.44608C37.0671 7.92803 36.6531 7.50841 36.1419 7.50841H35.159C34.7045 3.80833 31.5904 0.945801 27.817 0.945801C25.385 0.945801 23.1489 2.14672 21.7708 4.12276C21.4761 4.54576 21.5749 5.13075 21.9923 5.42943C22.4096 5.72812 22.9868 5.62799 23.2815 5.205M9.3178 6.57073C8.29605 6.57073 7.468 7.40997 7.468 8.44552C7.468 8.96301 7.05397 9.38319 6.54282 9.38319C6.03166 9.38319 5.61764 8.96358 5.61764 8.44552C5.61764 6.37386 7.2743 4.69538 9.3178 4.69538C9.82895 4.69538 10.243 5.115 10.243 5.63305C10.243 6.15111 9.82895 6.57073 9.3178 6.57073Z" fill="white" fill-opacity="0.15"/>
</g>
</g>
</g>
<defs>
<clipPath id="clip0_74_9023">
<rect width="37" height="15" fill="white" transform="translate(0.067627 0.945801)"/>
</clipPath>
</defs>
</svg>
