<svg width="32" height="32" viewBox="0 0 32 32" fill="none" xmlns="http://www.w3.org/2000/svg">
<g id="Layer_1" clip-path="url(#clip0_74_9019)">
<path id="Vector" d="M4.51051 25.3026L16.3216 30.7463C18.5891 32.0814 21.4133 32.0341 23.6348 30.6237C24.0055 30.39 23.7138 30.6055 30.0488 22.8102C30.7527 22.232 31.1298 21.347 31.0592 20.4391C30.8533 17.6074 27.6773 17.771 25.4314 16.6353V13.3949C25.4314 6.39241 19.7537 0.71582 12.7495 0.71582C5.7453 0.71582 0.067627 6.39241 0.067627 13.3953V17.6218C0.0743906 20.7908 1.76658 23.7164 4.51051 25.3026ZM21.9439 28.3528C20.6224 29.0996 19.0008 29.0755 17.7026 28.2894C17.6574 28.2641 17.6105 28.24 17.5619 28.2176C6.69898 22.9712 5.82816 23.3233 4.31648 21.5342C10.1134 24.3322 19.8573 23.8546 24.4384 19.2802L28.2315 20.6538C27.947 20.8622 28.4163 20.3779 21.9443 28.3532L21.9439 28.3528ZM22.613 13.3953V17.123C19.41 20.6636 11.735 21.134 7.11283 19.6323V16.5651C7.11283 11.1595 8.99102 4.59024 14.2527 3.66041C19.057 4.40427 22.6042 8.53482 22.613 13.3953ZM7.3652 5.14222C5.25874 8.57286 4.1922 12.5407 4.29492 16.5651V18.3022C3.77792 17.97 3.30446 17.574 2.88596 17.1243V13.3953C2.88934 10.0644 4.57434 6.96045 7.36562 5.14222H7.3652Z" fill="white" fill-opacity="0.15"/>
</g>
<defs>
<clipPath id="clip0_74_9019">
<rect width="31" height="31" fill="white" transform="translate(0.067627 0.71582)"/>
</clipPath>
</defs>
</svg>
