<svg width="24" height="33" viewBox="0 0 24 33" fill="none" xmlns="http://www.w3.org/2000/svg">
<g id="Layer_1" clip-path="url(#clip0_74_9063)">
<path id="Vector" d="M22.4154 0.447588C21.8416 0.411188 21.3426 0.847188 21.3053 1.42239L21.1158 4.38799C20.6301 10.1656 17.1126 15.236 11.8943 17.7312C6.67561 15.2364 3.15854 10.166 2.67282 4.38799L2.48326 1.42239C2.44639 0.847588 1.94985 0.411188 1.37316 0.447588C0.796867 0.484388 0.359638 0.980388 0.396107 1.55559L0.586468 4.53159C0.586869 4.53839 0.58727 4.54519 0.588071 4.55159C1.06658 10.2816 4.1881 15.3952 8.93309 18.4624C6.36903 19.5992 4.57603 22.1652 4.57603 25.1416C4.57603 29.1692 7.85905 32.446 11.8943 32.446C15.9296 32.446 19.2126 29.1692 19.2126 25.1416C19.2126 22.1652 17.4196 19.5996 14.8555 18.4624C19.6005 15.3952 22.722 10.2816 23.2005 4.55159C23.2009 4.54479 23.2017 4.53799 23.2021 4.53159L23.3925 1.55559C23.4294 0.980388 22.9921 0.484388 22.4159 0.447588H22.4154ZM10.8487 30.2536C10.1823 30.118 9.56228 29.8548 9.01364 29.492L10.8487 27.6604V30.2536ZM10.8487 24.7092L7.53524 28.0164C6.9874 27.1912 6.6668 26.2032 6.6668 25.1412C6.6668 22.6216 8.4654 20.5136 10.8487 20.0288V24.7088V24.7092ZM12.9395 30.2536V27.6604L14.7746 29.492C14.2263 29.8548 13.6059 30.118 12.9395 30.2536ZM17.1214 25.1412C17.1214 26.2032 16.8012 27.1912 16.253 28.0164L12.9395 24.7092V20.0292C15.3224 20.514 17.1214 22.622 17.1214 25.1416V25.1412Z" fill="white" fill-opacity="0.15"/>
</g>
<defs>
<clipPath id="clip0_74_9063">
<rect width="23" height="32" fill="white" transform="translate(0.394287 0.445801)"/>
</clipPath>
</defs>
</svg>
