<svg width="43" height="27" viewBox="0 0 43 27" fill="none" xmlns="http://www.w3.org/2000/svg">
<g id="_2" clip-path="url(#clip0_74_9044)">
<path id="Vector" d="M35.3887 11.876C31.5667 10.9285 25.6248 7.0006 21.975 3.78666C21.4726 3.34393 21.0688 2.9093 20.6788 2.48868C19.9385 1.69113 19.2387 0.937793 18.1939 0.534972C17.7629 0.368883 17.3083 0.28476 16.8421 0.28476C15.2917 0.28476 14.0769 1.21874 13.4936 1.66794C11.9417 2.8613 11.4724 4.1706 11.381 5.15797C11.2324 5.16984 11.0818 5.17685 10.9295 5.17685C9.40072 5.17685 8.84317 4.52597 8.49877 3.88965C7.59997 2.22822 6.00817 1.19609 4.34444 1.19609C2.30062 1.19609 0.232117 2.81924 0.232117 5.92209V26.2842H42.1082V23.671C42.1082 23.5518 42.1297 23.2698 42.1492 23.0207C42.3261 20.7224 42.8647 13.7283 35.3898 11.8754L35.3887 11.876ZM31.8497 14.913C32.2944 14.5598 32.8472 14.2578 33.525 14.0308C33.9592 14.1807 34.3849 14.3161 34.7918 14.4169C38.4101 15.3142 39.4213 17.756 39.6412 19.969H28.7632L29.5339 19.9313L29.703 19.9248V19.9232L29.7019 19.8359C29.6988 19.4702 29.7623 18.0644 30.4075 16.7459C30.7294 16.0843 31.1861 15.4431 31.8502 14.9136L31.8497 14.913ZM15.0156 3.76185C15.4414 3.43453 16.1365 2.89851 16.841 2.89851C16.9943 2.89851 17.1476 2.92386 17.2993 2.98209C18.1472 3.30888 18.8602 4.48607 20.3181 5.77056C23.1394 8.25489 27.3431 11.2353 31.1394 13.0451C30.9835 13.1497 30.8212 13.2511 30.679 13.3648C29.9728 13.9284 29.441 14.5809 29.0383 15.2484C23.9149 12.7021 20.0241 10.3132 17.3728 8.51373C15.9118 7.52205 14.8224 6.7094 14.1021 6.14804C14.0606 6.11622 14.0328 6.09304 13.9939 6.0623C13.7923 5.46535 13.869 4.64353 15.0151 3.76239L15.0156 3.76185ZM2.77522 5.92317C2.77522 4.49146 3.50707 3.81038 4.34339 3.81038C5.03377 3.81038 5.79449 4.2736 6.27382 5.16013C7.39364 7.23032 9.24899 7.79168 10.9285 7.79168C11.5968 7.79168 12.2357 7.70216 12.7912 7.58514C14.8003 9.16731 19.9217 12.8973 28.243 17.0301C28.2298 17.0717 28.2136 17.1148 28.2015 17.1558C27.8308 18.3917 27.7946 19.4298 27.7936 19.8364C27.7936 19.8973 27.7946 19.9383 27.7957 19.9696H12.7576C12.4111 18.5578 11.6062 17.1612 10.3893 16.0029C8.73187 14.4288 6.28799 13.3212 3.22567 13.3244C3.07814 13.3244 2.92642 13.3319 2.77574 13.3373C2.77574 9.80039 2.77574 6.56434 2.77574 5.92371L2.77522 5.92317ZM2.77522 15.2964C2.92642 15.2905 3.07814 15.2835 3.22514 15.2835C5.84332 15.2867 7.78582 16.2062 9.09517 17.4427C9.90682 18.2079 10.4617 19.1036 10.7662 19.9685H2.77522V15.2959V15.2964ZM39.563 23.6715H2.77522V21.9292H39.6717C39.6339 22.6605 39.563 23.2763 39.563 23.6715Z" fill="white" fill-opacity="0.15"/>
</g>
<defs>
<clipPath id="clip0_74_9044">
<rect width="42" height="26" fill="white" transform="translate(0.230957 0.285339)"/>
</clipPath>
</defs>
</svg>
