<svg width="16" height="18" viewBox="0 0 16 18" fill="none" xmlns="http://www.w3.org/2000/svg">
<path d="M15.4992 5.01534C15.3406 6.77596 15.2019 8.59077 14.6722 10.3549C14.1934 11.949 13.2424 13.2597 11.9489 14.3705C10.8151 15.3445 9.58162 16.2044 8.36055 17.0781C8.10328 17.2619 7.89985 17.277 7.6645 17.1096C6.32147 16.1533 4.96987 15.2082 3.74404 14.1169C2.18996 12.7334 1.34574 11.0216 0.976512 9.074C0.716863 7.70246 0.585848 6.31849 0.471507 4.93184C0.447209 4.63559 0.582513 4.46371 0.917913 4.36422C2.18853 3.98669 3.43246 3.54831 4.62303 2.98379C5.68879 2.47879 6.68736 1.88274 7.57255 1.12768C7.85221 0.889174 8.11281 0.877182 8.37484 1.10192C9.75694 2.2887 11.3896 3.07884 13.1171 3.72064C13.7579 3.95871 14.4082 4.17234 15.0657 4.36733C15.4054 4.46815 15.5183 4.62849 15.4997 5.01534H15.4992ZM14.4082 5.66958C14.4368 5.19389 14.4359 5.19656 14.0928 5.08552C11.9389 4.38998 9.87319 3.53676 8.10424 2.15856C7.99085 2.07017 7.93034 2.1137 7.84507 2.18077C7.3777 2.54897 6.87984 2.87809 6.36006 3.17878C4.92366 4.00978 3.37719 4.61605 1.77833 5.11261C1.60491 5.16636 1.52487 5.22765 1.54345 5.41952C1.66685 6.7009 1.78881 7.98183 2.0699 9.24456C2.37528 10.6148 2.93365 11.8682 3.95509 12.919C5.11899 14.1165 6.51538 15.0594 7.86984 16.049C7.98037 16.1298 8.04754 16.0903 8.13568 16.0263C9.1395 15.3023 10.1481 14.5842 11.0933 13.7927C12.3044 12.7787 13.2234 11.5946 13.6717 10.1124C14.1267 8.60764 14.2682 7.062 14.4082 5.66914V5.66958Z" fill="white"/>
<path d="M8.00292 3.10535C8.29401 3.28612 8.55318 3.45356 8.81855 3.61124C10.2488 4.46179 11.7805 5.1178 13.3679 5.66588C13.4918 5.70852 13.5704 5.74405 13.5542 5.89284C13.417 7.16534 13.2836 8.43739 12.9148 9.67613C12.5103 11.0357 11.6895 12.1469 10.5999 13.1028C9.81284 13.793 8.97005 14.4201 8.11774 15.037C8.08963 15.0575 8.05532 15.0712 8.00244 15.0992V3.10535H8.00292Z" fill="white"/>
</svg>
