<svg width="30" height="20" viewBox="0 0 30 20" fill="none" xmlns="http://www.w3.org/2000/svg">
<g clip-path="url(#clip0_2328_301)">
<path d="M29.1807 6.82915C28.99 7.28485 28.7352 7.67524 28.2153 7.80586C28.1796 7.81477 28.1438 7.82961 28.1066 7.83704C27.7282 7.90383 27.7327 7.90235 27.8697 8.25415C28.3003 9.36001 28.5297 10.5074 28.5356 11.6934C28.5461 13.6409 28.5401 15.587 28.5386 17.5345C28.5386 18.5453 28.0172 19.0604 27.0027 19.0619C26.5409 19.0619 26.0776 19.0678 25.6158 19.0619C24.725 19.0485 24.1976 18.5141 24.1931 17.6265C24.1902 17.2227 24.1842 16.8175 24.1961 16.4138C24.2006 16.2416 24.1514 16.1792 23.9742 16.1881C23.7299 16.2015 23.484 16.1911 23.2382 16.1911C20.0577 16.1911 16.8772 16.1911 13.6952 16.1911C13.0144 16.1911 13.0159 16.1911 13.0129 16.8843C13.0115 17.242 13.0278 17.5983 12.9891 17.956C12.9072 18.6848 12.2815 19.3009 11.5501 19.3588C11.4279 19.3691 11.3057 19.3736 11.1821 19.3736C8.12375 19.3736 5.06539 19.3691 2.00704 19.3781C1.27261 19.3795 0.703549 19.1257 0.354959 18.4607C0.225355 18.2143 0.180664 17.9456 0.180664 17.6695C0.180664 15.112 0.180664 12.5529 0.180664 9.99532C0.180664 9.31399 0.481584 8.8004 1.09087 8.48719C1.24282 8.41 1.25772 8.31797 1.25921 8.17844C1.26815 7.45555 1.22494 6.73266 1.35604 6.01274C1.84913 3.31711 4.47398 1.39633 7.2046 1.73625C7.54276 1.77782 7.87348 1.8461 8.19823 1.94407C8.28166 1.9693 8.36806 2.03313 8.4053 1.87133C8.61237 0.995552 9.3021 0.673442 10.0723 0.455239C10.3479 0.378052 10.6339 0.378052 10.9169 0.378052C14.8334 0.378052 18.7513 0.378052 22.6677 0.378052C23.9205 0.378052 24.8933 1.03266 25.3715 2.19196C25.7484 3.10336 26.1268 4.01477 26.4932 4.92915C26.5588 5.09243 26.6243 5.14141 26.8001 5.08204C27.0757 4.98852 27.3647 4.93211 27.6433 4.84602C28.3464 4.6293 28.914 4.78368 29.1777 5.58672V6.82766L29.1807 6.82915ZM18.5829 8.12352C20.6506 8.12352 22.7169 8.12352 24.7846 8.12352C24.935 8.12352 25.0855 8.12797 25.2344 8.08493C25.5964 7.97805 25.7737 7.69454 25.6903 7.33086C25.665 7.22102 25.6262 7.11415 25.583 7.01172C24.9723 5.52586 24.36 4.04149 23.7477 2.55563C23.4349 1.79563 22.8673 1.41711 22.0361 1.41711C19.9982 1.41711 17.9588 1.41711 15.9208 1.41711C14.4386 1.41711 12.9578 1.41415 11.4756 1.41711C10.765 1.4186 10.114 1.86688 9.88308 2.4829C9.81307 2.67141 9.82796 2.79758 10.0023 2.93711C10.692 3.4893 11.1881 4.18696 11.5337 5.0004C11.9076 5.88063 11.9538 6.80391 11.9404 7.73758C11.9344 8.11907 11.9404 8.12204 12.3277 8.12204C14.4133 8.12204 16.4988 8.12204 18.5859 8.12204L18.5829 8.12352ZM6.58489 8.30165C7.83028 8.30165 9.07567 8.30016 10.3211 8.30461C10.4924 8.30461 10.6056 8.29868 10.5952 8.07305C10.5728 7.57579 10.6071 7.07704 10.5579 6.57977C10.3777 4.76438 8.95053 3.33344 7.04818 3.06477C5.33056 2.82282 3.52355 3.92422 2.88149 5.57188C2.56716 6.37938 2.62675 7.2136 2.60739 8.04633C2.60292 8.26602 2.67591 8.30758 2.87851 8.3061C4.11496 8.29719 5.34993 8.30165 6.58638 8.30165H6.58489ZM23.633 10.8681C23.0491 10.8681 22.4636 10.8637 21.8796 10.8681C21.4134 10.8726 21.2346 11.0552 21.2301 11.5227C21.2257 12.0393 21.2227 12.5559 21.2301 13.0724C21.2361 13.497 21.4283 13.6929 21.8573 13.6959C23.0267 13.7033 24.1961 13.7018 25.3641 13.6959C25.8005 13.6929 26.0002 13.4851 26.0031 13.0502C26.0076 12.5529 26.0061 12.0541 26.0031 11.5569C26.0016 11.0552 25.8229 10.8711 25.3268 10.8681C24.7607 10.8637 24.1961 10.8681 23.63 10.8681H23.633ZM6.5968 11.9339C5.55848 11.9547 4.74213 12.8898 5.15775 13.7953C5.47208 14.4811 5.7298 15.1788 5.78194 15.9388C5.7879 16.0204 5.82067 16.1035 5.85344 16.1807C5.94878 16.4138 6.11712 16.5577 6.37186 16.6082C6.96476 16.724 7.35655 16.4791 7.42359 15.8601C7.49807 15.1684 7.69322 14.5241 7.99563 13.9037C8.11481 13.6588 8.17887 13.3945 8.12524 13.1125C8.00308 12.4534 7.3357 11.9354 6.59829 11.9339H6.5968Z" fill="white"/>
</g>
<defs>
<clipPath id="clip0_2328_301">
<rect width="29" height="19" fill="white" transform="translate(0.180664 0.378052)"/>
</clipPath>
</defs>
</svg>
