<svg width="29" height="20" viewBox="0 0 29 20" fill="none" xmlns="http://www.w3.org/2000/svg">
<path d="M21.7513 3.23502L22.098 6.76458H20.9924L18.0079 3.24227H14.4567L14.3113 1.867H17.7695L17.5826 0.0983887H9.18397L9.37094 1.867H12.8292L12.9746 3.24227H9.18088L7.72446 5.63066H4.26207L4.76838 10.4199H3.36478L2.99995 6.96897H1.51785L2.44853 15.7724H3.93063L3.55175 12.1885H4.95535L5.48659 17.2135H8.97131L10.9585 19.4278L19.7147 19.4216L21.9808 15.9283H23.0664L23.4871 19.6577H28.0428L26.3114 3.27977L21.7513 3.23502ZM26.3737 17.8891H24.7697L24.349 14.1597H21.134L18.8675 17.6535L11.4098 17.6587L9.42298 15.445H6.78173L5.93115 7.39927H8.59479L10.0512 5.01088H17.5273L20.5119 8.53319H23.7538L23.4086 5.01813L25.0147 5.03387L26.3737 17.8891Z" fill="white"/>
</svg>
