<svg width="25" height="25" viewBox="0 0 25 25" fill="none" xmlns="http://www.w3.org/2000/svg">
<path d="M18.2899 1.86546C18.2899 0.954275 17.5516 0.215942 16.6404 0.215942H4.24131C3.33013 0.215942 2.5918 0.954275 2.5918 1.86546V21.968H0.712891V24.8904H20.1688V21.968H18.2899V1.86546ZM16.3907 8.06553H11.6545C11.6567 8.03352 11.6599 8.00152 11.6599 7.96844L13.2742 5.40775L11.0058 6.72864C10.7647 6.56326 10.4723 6.46617 10.1565 6.46617C9.32642 6.46617 8.65317 7.13942 8.65317 7.96951C8.65317 8.00258 8.65637 8.03459 8.65851 8.0666H4.65956V4.37173C4.65956 3.32292 5.50992 2.47255 6.55874 2.47255H14.1363C15.3814 2.47255 16.3907 3.48189 16.3907 4.72703V8.0666V8.06553Z" fill="white"/>
<path d="M23.4909 18.7767C23.1719 20.4753 21.8318 19.69 21.7881 19.2408C21.5043 16.2821 21.7881 7.35278 21.7881 7.35278C21.7881 7.09031 21.7209 6.82783 21.5747 6.60911C21.2418 6.10977 20.6752 5.98174 20.2143 5.97107C20.2111 5.97107 20.2079 5.97107 20.2047 5.97107H19.4771V7.10524H19.9497C20.5707 7.10524 20.6176 7.68993 20.6176 7.68993C20.6176 7.68993 20.1972 16.4048 20.6176 19.2685C20.7105 19.8991 21.1191 20.9383 22.5659 20.9106C24.0137 20.8828 24.4885 19.8191 24.5974 19.1576C24.8332 17.73 24.5974 13.3683 24.5974 13.3683H23.4002C23.4002 13.3683 23.7385 17.444 23.4888 18.7777L23.4909 18.7767Z" fill="white"/>
<path d="M24.9889 9.08118H22.9297V12.9222H24.9889V9.08118Z" fill="white"/>
<path d="M23.3961 8.52421H24.3703C24.3703 8.52421 24.4257 5.60182 22.2545 4.01526L21.8096 4.7664C21.8096 4.7664 23.4794 5.85149 23.3961 8.52421Z" fill="white"/>
</svg>
