<svg width="18" height="27" viewBox="0 0 18 27" fill="none" xmlns="http://www.w3.org/2000/svg">
<path d="M6.70632 15.1546C6.69754 15.0755 6.63693 15.0693 6.58283 15.0549C6.05006 14.913 5.51728 14.7713 4.98423 14.6294C4.95222 14.6209 4.92021 14.6133 4.88906 14.6028C4.80012 14.5722 4.79502 14.5201 4.85337 14.4541C4.87206 14.4328 4.89302 14.4136 4.91313 14.3938C7.61326 11.6935 10.3134 8.9935 13.0138 6.29352C13.0404 6.26689 13.0667 6.2397 13.0945 6.21421C13.1262 6.18503 13.1611 6.17823 13.1953 6.20939C13.2222 6.23347 13.2324 6.26349 13.2146 6.29833C13.1996 6.32779 13.1851 6.35753 13.1693 6.38642C12.2493 8.07632 11.3291 9.76622 10.4088 11.4561C10.3363 11.5892 10.344 11.6113 10.4921 11.6459C11.043 11.7745 11.5942 11.9005 12.1448 12.0308C12.1995 12.0439 12.2774 12.0334 12.2946 12.1133C12.3094 12.1812 12.249 12.2124 12.2108 12.2506C9.50133 14.9611 6.79129 17.6713 4.08126 20.3815C4.06115 20.4016 4.04076 20.4211 4.01951 20.4398C3.98722 20.4681 3.95182 20.4741 3.91811 20.4438C3.89121 20.4197 3.88129 20.3897 3.89914 20.3548C3.91216 20.3296 3.92463 20.3044 3.93822 20.2795C4.84714 18.5944 5.75634 16.9093 6.66554 15.2243C6.67885 15.1996 6.69386 15.1758 6.70632 15.1549V15.1546Z" fill="white"/>
</svg>
