<svg width="296" height="36" viewBox="0 0 296 36" fill="none" xmlns="http://www.w3.org/2000/svg">
<rect width="5.036" height="27.1935" transform="matrix(1.00014 -3.3226e-09 0.105147 0.994597 0 8.81909)" fill="black"/>
<rect width="5.036" height="27.1935" transform="matrix(1.00014 1.47756e-08 0.105147 0.994597 7.55566 8.81763)" fill="black"/>
<rect width="5.036" height="27.1935" transform="matrix(1.00014 1.47756e-08 0.105147 0.994597 15.1104 8.81787)" fill="black"/>
<rect width="5.036" height="27.1935" transform="matrix(1.00014 1.47756e-08 0.105147 0.994597 22.665 8.81787)" fill="black"/>
<rect width="5.036" height="27.1935" transform="matrix(1.00014 1.47756e-08 0.105147 0.994597 30.2207 8.81787)" fill="black"/>
<rect width="5.036" height="27.1935" transform="matrix(1.00014 1.47756e-08 0.105147 0.994597 37.7754 8.81775)" fill="black"/>
<rect width="5.036" height="27.1935" transform="matrix(1.00014 1.47756e-08 0.105147 0.994597 45.3306 8.81799)" fill="black"/>
<rect width="5.036" height="27.1935" transform="matrix(1.00014 1.47756e-08 0.105147 0.994597 52.8857 8.81775)" fill="black"/>
<rect width="5.036" height="27.1935" transform="matrix(1.00014 1.47756e-08 0.105147 0.994597 60.4404 8.81763)" fill="black"/>
<rect width="5.036" height="27.1935" transform="matrix(1.00014 1.47756e-08 0.105147 0.994597 67.9956 8.81787)" fill="black"/>
<rect width="5.036" height="27.1935" transform="matrix(1.00014 1.47756e-08 0.105147 0.994597 75.5508 8.81787)" fill="black"/>
<rect width="5.036" height="27.1935" transform="matrix(1.00014 1.47756e-08 0.105147 0.994597 158.656 8.81787)" fill="black"/>
<rect width="5.036" height="27.1935" transform="matrix(1.00014 1.47756e-08 0.105147 0.994597 83.106 8.81787)" fill="black"/>
<rect width="5.036" height="27.1935" transform="matrix(1.00014 1.47756e-08 0.105147 0.994597 166.212 8.81787)" fill="black"/>
<rect width="5.036" height="27.1935" transform="matrix(1.00014 1.47756e-08 0.105147 0.994597 90.6611 8.81787)" fill="black"/>
<rect width="5.036" height="27.1935" transform="matrix(1.00014 1.47756e-08 0.105147 0.994597 173.767 8.81787)" fill="black"/>
<rect width="5.036" height="27.1935" transform="matrix(1.00014 1.47756e-08 0.105147 0.994597 98.2158 8.81787)" fill="black"/>
<rect width="5.036" height="27.1935" transform="matrix(1.00014 1.47756e-08 0.105147 0.994597 181.322 8.81787)" fill="black"/>
<path d="M241.097 0.17688L246.134 0.17688L249.659 35.8644L244.622 35.8644L241.097 0.17688Z" fill="black"/>
<path d="M264.011 0.17688L269.048 0.17688L272.573 35.8644L267.536 35.8644L264.011 0.17688Z" fill="black"/>
<rect width="5.036" height="27.1935" transform="matrix(1.00014 1.47756e-08 0.105147 0.994597 105.771 8.81787)" fill="black"/>
<rect width="5.036" height="27.1935" transform="matrix(1.00014 1.47756e-08 0.105147 0.994597 188.877 8.81787)" fill="black"/>
<path d="M248.653 0.0439453L253.689 0.0439454L257.214 35.8644L252.177 35.8644L248.653 0.0439453Z" fill="black"/>
<path d="M271.567 0.0439453L276.603 0.0439454L280.128 35.8644L275.091 35.8644L271.567 0.0439453Z" fill="black"/>
<rect width="5.036" height="27.1935" transform="matrix(1.00014 1.47756e-08 0.105147 0.994597 113.326 8.81775)" fill="black"/>
<rect width="5.036" height="27.1935" transform="matrix(1.00014 1.47756e-08 0.105147 0.994597 196.432 8.81775)" fill="black"/>
<path d="M255.92 0L260.957 7.44099e-08L264.768 35.8644L259.732 35.8644L255.92 0Z" fill="black"/>
<path d="M278.834 0L283.871 7.44099e-08L287.682 35.8644L282.646 35.8644L278.834 0Z" fill="black"/>
<path d="M286.677 0L291.714 7.44099e-08L295.526 35.8644L290.489 35.8644L286.677 0Z" fill="black"/>
<rect width="5.036" height="27.1935" transform="matrix(1.00014 1.47756e-08 0.105147 0.994597 120.881 8.81775)" fill="black"/>
<rect width="5.036" height="27.1935" transform="matrix(1.00014 1.47756e-08 0.105147 0.994597 203.987 8.81775)" fill="black"/>
<rect width="5.036" height="27.1935" transform="matrix(1.00014 1.47756e-08 0.105147 0.994597 128.437 8.81775)" fill="black"/>
<rect width="5.036" height="27.1935" transform="matrix(1.00014 1.47756e-08 0.105147 0.994597 211.542 8.81775)" fill="black"/>
<rect width="5.036" height="27.1935" transform="matrix(1.00014 1.47756e-08 0.105147 0.994597 135.991 8.81775)" fill="black"/>
<rect width="5.036" height="27.1935" transform="matrix(1.00014 1.47756e-08 0.105147 0.994597 219.097 8.81775)" fill="black"/>
<rect width="5.036" height="27.1935" transform="matrix(1.00014 1.47756e-08 0.105147 0.994597 226.993 8.81775)" fill="black"/>
<rect width="5.036" height="27.1935" transform="matrix(1.00014 1.47756e-08 0.105147 0.994597 234.207 8.81775)" fill="black"/>
<rect width="5.036" height="27.1935" transform="matrix(1.00014 1.47756e-08 0.105147 0.994597 143.546 8.81775)" fill="black"/>
<rect width="5.036" height="27.1935" transform="matrix(1.00014 1.47756e-08 0.105147 0.994597 151.102 8.81763)" fill="black"/>
</svg>
