<svg width="24" height="22" viewBox="0 0 24 22" fill="none" xmlns="http://www.w3.org/2000/svg">
<g clip-path="url(#clip0_2328_304)">
<path d="M9.44152 3.87375L5.74869 0.30622C5.56866 0.132302 5.27247 0.132302 5.08811 0.30622C4.90375 0.480138 4.90023 0.762879 5.08025 0.936797L8.44723 4.1886L5.33391 7.1256L1.96698 3.87375C1.78695 3.69983 1.49076 3.69983 1.3064 3.87375C1.12204 4.04767 1.11852 4.33041 1.29855 4.50433L4.99138 8.07186C5.08188 8.15836 5.20089 8.20209 5.3205 8.20209C5.44011 8.20209 5.56022 8.1584 5.65195 8.07186L9.43366 4.50433C9.61802 4.33041 9.62154 4.04767 9.44152 3.87375Z" fill="white"/>
<path d="M12.5038 5.02608L11.0396 3.61153C10.4995 3.08978 9.611 3.08978 9.05793 3.61153L4.74867 7.67673C4.48014 7.93092 4.3302 8.26718 4.32574 8.6248C4.3213 8.98154 4.46288 9.31691 4.72323 9.56751C5.16085 9.98938 5.72844 10.5521 6.16034 10.9829C6.42059 11.2425 6.77104 11.387 7.14844 11.3896C7.15313 11.3896 7.15685 11.3896 7.16057 11.3896C7.53525 11.3896 7.88827 11.2505 8.1568 10.9963L12.4802 6.91773C13.0334 6.39601 13.0439 5.54783 12.5038 5.02608ZM11.8285 6.28807L7.50507 10.3667C7.41431 10.4523 7.28017 10.4942 7.16897 10.4978C7.04377 10.4969 6.92759 10.4496 6.84082 10.3631C6.40524 9.92876 5.83392 9.3624 5.39263 8.93697C5.30586 8.85315 5.25863 8.74253 5.26009 8.6248C5.26158 8.50527 5.31155 8.39289 5.40138 8.30819L9.71064 4.24299C9.80331 4.15557 9.9234 4.11276 10.043 4.11276C10.1626 4.11276 10.2817 4.15557 10.3721 4.24299L11.8364 5.65661C11.9231 5.74136 11.9704 5.85281 11.9689 5.97234C11.9673 6.09187 11.9174 6.20337 11.8285 6.28807Z" fill="white"/>
<path d="M14.5093 9.67108L11.7396 6.99543C11.5596 6.82151 11.2634 6.82151 11.079 6.99543C10.8947 7.16935 10.8912 7.45209 11.0712 7.626L13.514 9.98593L11.3462 12.031L8.90241 9.67108C8.72238 9.49716 8.42619 9.49716 8.24183 9.67108C8.05747 9.845 8.05395 10.1277 8.23397 10.3017L11.0036 12.9773C11.0941 13.0638 11.2131 13.1075 11.3327 13.1075C11.4523 13.1075 11.5725 13.0639 11.6651 12.9773L14.5014 10.3017C14.6858 10.1277 14.6893 9.845 14.5093 9.67108Z" fill="white"/>
<path d="M10.3535 5.65754C10.1734 5.48362 9.87723 5.48362 9.69287 5.65754L6.85657 8.3332C6.67221 8.50712 6.66869 8.78986 6.84872 8.96378C6.93922 9.05028 7.05824 9.09401 7.17785 9.09401C7.29745 9.09401 7.41756 9.05032 7.5093 8.96378L10.3456 6.28812C10.53 6.11416 10.5335 5.83146 10.3535 5.65754Z" fill="white"/>
<path d="M23.2898 17.252L20.5202 14.5764C20.3401 14.4024 20.0439 14.4024 19.8596 14.5764L16.0779 18.1439C15.8935 18.3178 15.89 18.6006 16.07 18.7745L18.8397 21.4501C18.9302 21.5366 19.0492 21.5804 19.1688 21.5804C19.2884 21.5804 19.4085 21.5367 19.5002 21.4493C19.6846 21.2753 19.6881 20.9926 19.5081 20.8187L17.0653 18.4587L20.1786 15.5217L22.6214 17.8826C22.8014 18.0565 23.0976 18.0565 23.282 17.8826C23.4663 17.7087 23.4698 17.4259 23.2898 17.252Z" fill="white"/>
<path d="M20.6212 14.7253C20.5949 14.6593 20.5536 14.6023 20.5009 14.5577C20.3436 14.3605 19.608 13.2573 17.9805 10.7011C17.7596 10.3542 17.3897 10.1277 16.966 10.0804C16.5378 10.0331 16.1156 10.174 15.8055 10.4666L11.8111 14.2348C11.5057 14.5238 11.354 14.9206 11.3957 15.3265C11.4374 15.7323 11.6665 16.0908 12.0244 16.3102L16.1488 18.8352C16.2258 18.8825 16.3124 18.9047 16.3993 18.9047C16.5199 18.9047 16.64 18.8601 16.7298 18.7727L20.5116 15.2052C20.6448 15.0794 20.6883 14.8912 20.6212 14.7253ZM16.3474 17.8907L12.5364 15.5584C12.4168 15.4852 12.3407 15.3657 12.3265 15.2301C12.3124 15.0945 12.3635 14.9617 12.4647 14.8662L16.4591 11.098C16.5508 11.0124 16.6701 10.9651 16.7943 10.9651C16.8121 10.9651 16.8298 10.966 16.8504 10.9678C16.9315 10.9767 17.0833 11.0151 17.1833 11.172C18.5404 13.3045 19.203 14.3427 19.5713 14.8493L16.3474 17.8907Z" fill="white"/>
<path d="M17.7392 12.7925C17.5592 12.6186 17.263 12.6186 17.0786 12.7925L14.2423 15.4682C14.058 15.6421 14.0544 15.9249 14.2345 16.0988C14.325 16.1853 14.444 16.229 14.5636 16.229C14.6832 16.229 14.8033 16.1853 14.895 16.0988L17.7313 13.4231C17.9157 13.2492 17.9192 12.9665 17.7392 12.7925Z" fill="white"/>
<path d="M14.7084 4.63452C14.4505 4.63452 14.2387 4.83432 14.2357 5.08048L14.2245 5.97235C14.2215 6.21851 14.4283 6.41831 14.6862 6.41831C14.944 6.41831 15.1558 6.21851 15.1589 5.97235L15.17 5.08048C15.173 4.83432 14.9663 4.63452 14.7084 4.63452Z" fill="white"/>
<path d="M18.401 8.20215H17.4667C17.2088 8.20215 16.997 8.40195 16.994 8.64811C16.9909 8.89427 17.1977 9.09406 17.4556 9.09406H18.3899C18.6478 9.09406 18.8595 8.89427 18.8626 8.64811C18.8657 8.40195 18.6589 8.20215 18.401 8.20215Z" fill="white"/>
<path d="M17.8281 5.65754C17.648 5.48362 17.3518 5.48362 17.1675 5.65754L16.2221 6.54941C16.0377 6.72333 16.0342 7.00607 16.2142 7.17999C16.3047 7.26649 16.4237 7.31022 16.5433 7.31022C16.6629 7.31022 16.783 7.26653 16.8748 7.17999L17.8202 6.28812C18.0046 6.11416 18.0081 5.83146 17.8281 5.65754Z" fill="white"/>
<path d="M9.90321 15.3372C9.64534 15.3372 9.43355 15.537 9.43048 15.7831L9.41937 16.675C9.4163 16.9211 9.62312 17.1209 9.88099 17.1209C10.1389 17.1209 10.3507 16.9211 10.3537 16.675L10.3648 15.7831C10.3679 15.537 10.1611 15.3372 9.90321 15.3372Z" fill="white"/>
<path d="M7.1339 12.6615H6.1996C5.94172 12.6615 5.72993 12.8613 5.72687 13.1075C5.7238 13.3536 5.93061 13.5534 6.18849 13.5534H7.12279C7.38066 13.5534 7.59246 13.3536 7.59552 13.1075C7.59859 12.8613 7.39177 12.6615 7.1339 12.6615Z" fill="white"/>
<path d="M8.37396 14.5764C8.19393 14.4024 7.89773 14.4024 7.71337 14.5764L6.76795 15.4682C6.58359 15.6422 6.58007 15.9249 6.7601 16.0988C6.8506 16.1853 6.96962 16.229 7.08923 16.229C7.20884 16.229 7.32894 16.1854 7.42068 16.0988L8.3661 15.2069C8.55046 15.033 8.55398 14.7503 8.37396 14.5764Z" fill="white"/>
</g>
<defs>
<clipPath id="clip0_2328_304">
<rect width="22.4232" height="21.4065" fill="white" transform="matrix(1 0 -0.0124555 0.999922 1.21582 0.175659)"/>
</clipPath>
</defs>
</svg>
