<svg xmlns="http://www.w3.org/2000/svg" width="51" height="32" viewBox="0 0 51 32" fill="none">
    <g clip-path="url(#clip0_431_335)">
        <path
                d="M25.6981 32.0001C25.587 31.855 25.492 31.6926 25.3615 31.567C23.1392 29.4338 20.9124 27.3051 18.6868 25.1753C18.5082 25.0048 18.3273 24.8367 18.0972 24.619C21.0052 22.1102 23.8788 19.6325 26.8796 17.0454C26.8006 18.2929 26.7307 19.4033 26.654 20.6058C27.4074 20.5667 28.1412 20.539 28.874 20.4895C33.8576 20.1532 38.7635 19.3826 43.501 17.7319C44.615 17.3438 45.7095 16.883 46.7777 16.382C48.4492 15.5975 49.9696 14.5977 51 12.9932V13.6843C50.9656 13.8686 50.913 14.0506 50.9004 14.236C50.7733 16.0525 50.6302 17.869 50.5375 19.6867C50.4905 20.6185 50.1814 21.4202 49.5231 22.0526C48.9884 22.5652 48.44 23.1169 47.7955 23.451C46.243 24.2527 44.6745 25.0624 43.0327 25.6453C38.5872 27.2245 33.955 27.9248 29.2712 28.2992C28.2134 28.3832 27.1532 28.4397 26.0839 28.5088C25.99 29.7102 25.9007 30.8552 25.8114 32.0001H25.6969H25.6981Z"
                fill="white"/>
        <path
                d="M25.4279 -6.88367e-05C28.0187 2.49372 30.518 4.90112 33.0516 7.34078C30.1597 9.85645 27.2997 12.3422 24.3631 14.8959C24.4433 13.6657 24.5154 12.5484 24.5932 11.3458C23.6705 11.3965 22.8198 11.4311 21.9714 11.4933C16.8378 11.8699 11.7923 12.697 6.93568 14.4823C6.45254 14.6597 5.95108 14.8129 5.5103 15.0698C4.99625 15.3693 4.6047 15.2414 4.1582 14.9454C2.77632 14.0274 1.77569 12.8202 1.19409 11.2514C1.04755 10.8563 1.05899 10.5257 1.36468 10.2631C2.1867 9.55927 2.96294 8.76563 3.87884 8.21159C6.55329 6.59437 9.52999 5.75235 12.5456 5.05432C16.3455 4.17545 20.2026 3.7124 24.0941 3.52003C25.358 3.45783 25.1485 3.67554 25.2458 2.39927C25.3042 1.64134 25.3603 0.882261 25.4279 -0.0012207V-6.88367e-05Z"
                fill="white"/>
        <path
                d="M0.556457 12.0808C0.633164 12.1119 0.684684 12.1165 0.696133 12.1396C2.00817 14.8165 4.26932 16.2713 7.03078 17.0131C8.37144 17.3736 9.7556 17.5683 11.1192 17.8401C11.1913 17.854 11.2611 17.8793 11.3825 17.9127C11.1936 20.5597 11.007 23.1929 10.8123 25.9182C9.99145 25.7512 9.19919 25.6556 8.44814 25.4229C6.70334 24.8838 4.94365 24.3632 3.25953 23.6651C2.36766 23.2954 1.57655 22.6273 0.823215 21.9926C0.166051 21.4386 -0.0606356 20.6576 0.0114921 19.7615C0.209557 17.2942 0.357247 14.8223 0.52669 12.3527C0.532414 12.2663 0.545008 12.181 0.555312 12.082L0.556457 12.0808Z"
                fill="white"/>
        <path
                d="M40.0068 13.9745C40.19 11.4254 40.3801 8.79221 40.5827 5.98511C42.3722 6.46428 44.1044 6.87204 45.7988 7.40305C46.7548 7.70254 47.6936 8.12643 48.5534 8.63901C49.1899 9.01912 49.7567 9.57663 50.2341 10.156C50.9817 11.0648 50.9863 11.741 50.3486 12.7327C49.443 14.1415 48.0302 14.9155 46.5991 15.6516C46.5132 15.6953 46.3781 15.6758 46.2762 15.6481C44.2189 15.1021 42.1615 14.5504 40.0068 13.9733V13.9745Z"
                fill="white"/>
    </g>
    <defs>
        <clipPath id="clip0_431_335">
            <rect width="51" height="32" fill="white"/>
        </clipPath>
    </defs>
</svg>