<svg width="15" height="16" viewBox="0 0 15 16" fill="none" xmlns="http://www.w3.org/2000/svg">
<path d="M12.1116 3.76929C11.6428 3.76929 11.2123 3.50679 10.9971 3.10179L10.4437 2.01429C10.0902 1.33179 9.16786 0.769287 8.38389 0.769287H6.62379C5.83213 0.769287 4.90981 1.33179 4.55626 2.01429L4.00286 3.10179C3.78765 3.50679 3.35724 3.76929 2.88839 3.76929C1.22052 3.76929 -0.101471 5.14179 0.00613347 6.76179L0.405806 12.9568C0.498039 14.5018 1.35119 15.7693 3.47253 15.7693H11.5275C13.6488 15.7693 14.4943 14.5018 14.5942 12.9568L14.9939 6.76179C15.1015 5.14179 13.7795 3.76929 12.1116 3.76929ZM6.3471 4.70679H8.6529C8.96803 4.70679 9.22935 4.96179 9.22935 5.26929C9.22935 5.57679 8.96803 5.83179 8.6529 5.83179H6.3471C6.03197 5.83179 5.77065 5.57679 5.77065 5.26929C5.77065 4.96179 6.03197 4.70679 6.3471 4.70679ZM7.5 12.8593C6.0704 12.8593 4.90213 11.7268 4.90213 10.3243C4.90213 8.92179 6.06271 7.78929 7.5 7.78929C8.93729 7.78929 10.0979 8.92179 10.0979 10.3243C10.0979 11.7268 8.9296 12.8593 7.5 12.8593Z" fill="white"/>
</svg>
