<svg width="32" height="31" viewBox="0 0 32 31" fill="none" xmlns="http://www.w3.org/2000/svg">
<path fill-rule="evenodd" clip-rule="evenodd" d="M0.82936 0.148728C-0.21777 0.644277 -0.288425 2.07379 0.703432 2.69746L1.00931 2.88975L2.74305 2.90926C4.33397 2.92718 4.48541 2.93843 4.58107 3.04589C4.66173 3.13651 4.93973 4.93238 5.80766 10.9699C6.63188 16.7034 6.97209 18.9118 7.08876 19.2852C7.49274 20.5783 8.62685 21.6381 9.94466 21.9539C10.5297 22.0941 25.9358 22.0942 26.5928 21.954C27.9433 21.6658 29.145 20.5328 29.5422 19.1732C29.6791 18.7049 32.0016 6.86145 32 6.64005C31.9983 6.40689 31.793 5.93054 31.6067 5.72737C31.5315 5.64533 31.3574 5.51665 31.2198 5.44141L30.9697 5.30459L19.4336 5.27281L7.89742 5.24104L7.75848 4.28781C7.53432 2.74944 7.43266 2.28141 7.22732 1.84242C6.97221 1.29698 6.29124 0.600492 5.7717 0.353798C5.12468 0.0465421 4.74677 0.000533184 2.86403 2.47981e-05C1.19045 -0.000420039 1.13612 0.0035199 0.82936 0.148728ZM11.0267 23.4618C9.54874 23.6522 8.23556 24.8606 7.89223 26.3462C7.75529 26.9386 7.80131 27.9035 7.99289 28.4589C8.50267 29.9365 9.89014 30.9463 11.4104 30.9463C12.4201 30.9463 13.2124 30.6022 13.9648 29.8369C14.7631 29.025 15.0567 28.3181 15.0567 27.2086C15.0567 26.4915 14.9362 25.9722 14.6432 25.4264C14.3549 24.8895 14.1121 24.5912 13.6885 24.2535C12.8868 23.6145 11.9665 23.3408 11.0267 23.4618ZM23.8104 23.455C22.3486 23.6154 21.0848 24.7024 20.6628 26.1621C20.4047 27.0551 20.4963 28.0305 20.9212 28.9128C21.2101 29.5125 21.9134 30.2538 22.4777 30.5534C23.9246 31.3215 25.6299 31.0846 26.8107 29.9516C27.2831 29.4983 27.5674 29.0487 27.7961 28.3939C28.0279 27.7299 28.0261 26.8126 27.7913 26.0849C27.2277 24.3374 25.5955 23.2592 23.8104 23.455Z" fill="white"/>
</svg>
