<svg width="31" height="27" viewBox="0 0 31 27" fill="none" xmlns="http://www.w3.org/2000/svg">
<path fill-rule="evenodd" clip-rule="evenodd" d="M3.28261 1.0016C2.78968 1.15576 2.38366 1.48742 2.16508 1.91448C2.08333 2.07415 1.65262 3.65778 1.13752 5.69228C0.278687 9.08482 0.251768 9.20925 0.283907 9.64386C0.451404 11.9117 2.2337 13.7535 4.40864 13.9064C5.68768 13.9963 6.91435 13.5197 7.84244 12.5722L8.23831 12.1681L8.63418 12.5715C10.3996 14.3705 13.1147 14.3705 14.8801 12.5715L15.276 12.1681L15.6719 12.5715C17.4373 14.3705 20.1524 14.3705 21.9178 12.5715L22.3137 12.1681L22.7096 12.5722C23.6377 13.5197 24.8643 13.9963 26.1434 13.9064C28.3183 13.7535 30.1006 11.9117 30.2681 9.64386C30.3002 9.20925 30.2733 9.08482 29.4145 5.69228C28.8994 3.65778 28.4687 2.07415 28.3869 1.91448C28.2175 1.58351 27.8509 1.24315 27.4818 1.07418L27.2107 0.950098L15.364 0.939182C5.95728 0.93053 3.46887 0.943362 3.28261 1.0016ZM7.8571 14.9257C7.47496 15.1645 6.72128 15.4681 6.15445 15.6116C4.99746 15.9046 3.46963 15.7783 2.35768 15.2978L2.13652 15.2022L2.15241 20.3566L2.16831 25.511L2.32196 25.8354C2.51726 26.2477 2.83178 26.5591 3.24824 26.7524L3.57584 26.9046L7.54921 26.9207L11.5226 26.9367V23.2191V19.5014H15.276H19.0294V23.2191V26.9367L23.0028 26.9207L26.9762 26.9046L27.3038 26.7524C27.7202 26.5591 28.0347 26.2477 28.23 25.8354L28.3837 25.511L28.3996 20.3566L28.4155 15.2022L28.1943 15.2978C27.4194 15.6327 26.2657 15.8245 25.392 15.7637C24.4946 15.7012 23.4485 15.379 22.7193 14.9405C22.5361 14.8303 22.3546 14.7402 22.3159 14.7402C22.2772 14.7402 22.0959 14.827 21.913 14.9331C20.0816 15.9956 17.5081 15.9956 15.6767 14.9331C15.4938 14.827 15.3135 14.7402 15.276 14.7402C15.2385 14.7402 15.0582 14.827 14.8753 14.9331C13.0439 15.9956 10.4704 15.9956 8.63899 14.9331C8.45613 14.827 8.27139 14.7407 8.22846 14.7413C8.18547 14.7419 8.01838 14.8249 7.8571 14.9257Z" fill="white"/>
</svg>
