<svg width="15" height="17" viewBox="0 0 15 17" fill="none" xmlns="http://www.w3.org/2000/svg">
<path d="M14.7144 7.19156C14.9101 6.98092 14.9101 6.63933 14.7144 6.42866L13.9625 5.61908C13.7924 5.43598 13.5255 5.40883 13.3266 5.55434L11.7455 6.7113L12.8136 4.99755C12.947 4.78353 12.9211 4.49776 12.7518 4.31553L11.1207 2.55942C10.9702 2.3973 10.7409 2.35533 10.5491 2.45484L10.2671 2.60103L10.4021 2.27843C10.4877 2.07398 10.4469 1.83389 10.2996 1.67529L9.78764 1.12411C9.592 0.913466 9.27473 0.913466 9.07906 1.12411L5.10211 5.40592L10.7375 11.4734L14.7144 7.19156Z" fill="white"/>
<path d="M4.36133 6.20319L3.21007 7.44271C3.11611 7.54388 3.0633 7.68108 3.0633 7.82415C3.0633 7.96721 3.11607 8.10445 3.21007 8.20558L4.30214 9.38138C4.51255 9.60791 4.6146 9.92055 4.58213 10.2391C4.54969 10.5574 4.38695 10.8388 4.13566 11.0113C0.926715 13.2137 0.627592 13.5358 0.529321 13.6416C-0.176115 14.4011 -0.176115 15.6369 0.529321 16.3964C1.23546 17.1567 2.38332 17.1552 3.08798 16.3964C3.18632 16.2906 3.48554 15.9684 5.53094 12.5136C5.69074 12.2437 5.95205 12.0689 6.24783 12.0339C6.54455 11.999 6.83489 12.1084 7.04479 12.3343L8.13686 13.5101C8.3325 13.7208 8.6498 13.7208 8.84544 13.5101L9.99674 12.2706L4.36133 6.20319ZM2.34013 15.5251C2.06355 15.8229 1.61515 15.8229 1.33861 15.5251C1.06203 15.2273 1.06203 14.7445 1.33861 14.4468C1.61518 14.149 2.06358 14.149 2.34013 14.4468C2.6167 14.7445 2.6167 15.2273 2.34013 15.5251Z" fill="white"/>
</svg>
