<svg width="16" height="17" viewBox="0 0 16 17" fill="none" xmlns="http://www.w3.org/2000/svg">
<path d="M1.05049 6.10809C1.13459 6.39645 1.25131 6.6745 1.39892 6.9354L0.978397 7.46577C0.841084 7.63913 0.856532 7.88629 1.01101 8.04248L1.73533 8.76681C1.89153 8.923 2.13869 8.93671 2.31205 8.7994L2.83898 8.38231C3.11018 8.53852 3.39853 8.66037 3.6989 8.74619L3.77786 9.42417C3.80361 9.64387 3.98898 9.80865 4.20868 9.80865H5.23337C5.45307 9.80865 5.63845 9.64386 5.66419 9.42417L5.73971 8.77022C6.0624 8.68612 6.37135 8.56082 6.66143 8.39776L7.1712 8.80112C7.34456 8.93843 7.59172 8.92298 7.74791 8.76851L8.47224 8.04418C8.62843 7.88799 8.64216 7.64083 8.50485 7.46747L8.10836 6.96456C8.27313 6.67962 8.40186 6.37583 8.48768 6.0583L9.09873 5.98792C9.31844 5.96218 9.4832 5.77681 9.4832 5.55711V4.53241C9.4832 4.31271 9.31843 4.12734 9.09873 4.10159L8.49627 4.03122C8.41386 3.71712 8.2903 3.41674 8.1324 3.13525L8.50315 2.66667C8.64046 2.49332 8.62501 2.24615 8.47054 2.08996L7.74793 1.36735C7.59174 1.21116 7.34457 1.19743 7.17122 1.33474L6.71637 1.69519C6.42114 1.52183 6.10531 1.38967 5.77406 1.30041L5.7054 0.711685C5.67966 0.491985 5.49428 0.327209 5.27458 0.327209H4.24989C4.03019 0.327209 3.84482 0.491985 3.81907 0.711685L3.75041 1.30041C3.41056 1.39138 3.08616 1.5287 2.78408 1.70892L2.31206 1.33474C2.13871 1.19743 1.89154 1.21288 1.73535 1.36735L1.01103 2.09168C0.854832 2.24787 0.841101 2.49503 0.978414 2.66839L1.37319 3.16787C1.21528 3.45279 1.09513 3.75659 1.01617 4.07241L0.384537 4.1445C0.164836 4.17025 6.10352e-05 4.35562 6.10352e-05 4.57532V5.60002C6.10352e-05 5.81972 0.164836 6.00509 0.384537 6.03083L1.05049 6.10809ZM4.76308 3.33609C5.6968 3.33609 6.45717 4.09646 6.45717 5.03019C6.45717 5.96391 5.6968 6.72428 4.76308 6.72428C3.82937 6.72428 3.06898 5.96391 3.06898 5.03019C3.06898 4.09646 3.82935 3.33609 4.76308 3.33609Z" fill="white"/>
<path d="M14.8933 6.36041L14.3526 5.90384C14.1861 5.7631 13.9407 5.76996 13.7828 5.91929L13.4841 6.19906C13.2318 6.0772 12.9641 5.99138 12.6877 5.9416L12.6036 5.52966C12.5607 5.31683 12.3633 5.16922 12.147 5.18638L11.4416 5.24646C11.2253 5.26534 11.0554 5.44213 11.0485 5.66011L11.0348 6.07891C10.7636 6.17675 10.5078 6.31063 10.2744 6.47884L9.91742 6.24197C9.73544 6.12182 9.49345 6.15615 9.35272 6.32264L8.89615 6.86674C8.75539 7.03324 8.76225 7.27868 8.91156 7.43659L9.22397 7.76956C9.11582 8.01329 9.03858 8.26905 8.99397 8.53164L8.5477 8.62261C8.33487 8.66552 8.18726 8.86291 8.20442 9.07919L8.26449 9.78464C8.28337 10.0009 8.46016 10.1708 8.67815 10.1777L9.16046 10.1931C9.24803 10.4231 9.36301 10.6411 9.50203 10.8454L9.23257 11.2521C9.11242 11.4341 9.14675 11.6761 9.31322 11.8168L9.85389 12.2734C10.0204 12.4142 10.2658 12.4073 10.4238 12.258L10.7773 11.9267C11.0091 12.0348 11.2528 12.1155 11.5034 12.1636L11.6012 12.6476C11.6441 12.8604 11.8415 13.008 12.0578 12.9909L12.7632 12.9308C12.9795 12.9119 13.1494 12.7351 13.1563 12.5171L13.1717 12.0434C13.4292 11.9524 13.6729 11.8288 13.8978 11.6761L14.2874 11.9336C14.4693 12.0537 14.7113 12.0194 14.8521 11.8529L15.3087 11.3122C15.4494 11.1457 15.4425 10.9003 15.2932 10.7424L14.9791 10.4094C15.0941 10.1657 15.1782 9.90822 15.2263 9.64387L15.6554 9.55634C15.8682 9.51343 16.0158 9.31604 15.9987 9.09975L15.9386 8.39431C15.9197 8.17804 15.7429 8.00812 15.5249 8.00125L15.0941 7.98752C15.0048 7.73693 14.8847 7.50008 14.7354 7.28036L14.9705 6.92678C15.0941 6.74488 15.0598 6.50115 14.8933 6.36041ZM12.2346 10.4386C11.4725 10.5038 10.7996 9.93566 10.7361 9.17359C10.6709 8.41151 11.2391 7.73866 12.0011 7.67515C12.7632 7.60993 13.4361 8.17808 13.4996 8.94015C13.5648 9.70225 12.9966 10.3751 12.2346 10.4386Z" fill="white"/>
<path d="M3.51858 12.3369C3.30232 12.3592 3.13583 12.5412 3.13411 12.7592L3.12896 13.1934C3.12553 13.4114 3.28687 13.5968 3.50314 13.6243L3.82239 13.6654C3.8756 13.8594 3.95112 14.0448 4.04895 14.2198L3.84299 14.4739C3.70567 14.6438 3.71597 14.8875 3.86873 15.0437L4.17254 15.3544C4.3253 15.5106 4.56903 15.5277 4.74238 15.3939L4.99811 15.1965C5.17833 15.3029 5.36887 15.387 5.56796 15.4454L5.60229 15.7749C5.6246 15.9912 5.80654 16.1577 6.02452 16.1594L6.45879 16.1645C6.67676 16.168 6.86215 16.0066 6.88961 15.7904L6.92909 15.478C7.14537 15.4247 7.35134 15.3441 7.547 15.2377L7.78729 15.4316C7.95722 15.5689 8.20096 15.5586 8.35716 15.4059L8.66783 15.1021C8.82402 14.9493 8.84118 14.7056 8.70732 14.5322L8.52363 14.2936C8.63691 14.1048 8.72447 13.904 8.78454 13.6929L9.06947 13.6637C9.28573 13.6414 9.45221 13.4595 9.45394 13.2415L9.45907 12.8072C9.46252 12.5892 9.30118 12.4039 9.08491 12.3764L8.80684 12.3403C8.75363 12.1309 8.67469 11.9284 8.57171 11.7396L8.74507 11.5268C8.88238 11.3568 8.87208 11.1131 8.71932 10.9569L8.41553 10.6463C8.26277 10.49 8.01901 10.4729 7.84567 10.6068L7.63796 10.7664C7.44231 10.648 7.23289 10.557 7.01321 10.4952L6.98573 10.2257C6.96342 10.0095 6.78149 9.84298 6.56349 9.84126L6.12924 9.83611C5.91126 9.83268 5.72589 9.99402 5.69841 10.2103L5.66408 10.4781C5.43753 10.5364 5.21955 10.6257 5.01701 10.7424L4.80246 10.5673C4.63253 10.43 4.38879 10.4403 4.23259 10.593L3.92021 10.8986C3.76401 11.0513 3.74685 11.2951 3.88073 11.4684L4.06439 11.7053C3.95797 11.8941 3.87386 12.0949 3.81894 12.306L3.51858 12.3369ZM6.32148 11.846C6.94454 11.8529 7.44399 12.3661 7.43714 12.9892C7.43028 13.6122 6.91706 14.1117 6.294 14.1048C5.67094 14.098 5.17149 13.5848 5.17833 12.9617C5.18522 12.3386 5.69842 11.8392 6.32148 11.846Z" fill="white"/>
</svg>
