<svg width="9" height="17" viewBox="0 0 9 17" fill="none" xmlns="http://www.w3.org/2000/svg">
<path d="M8.49047 11.1165C8.4991 9.85071 8.03435 8.84961 7.10734 8.14264C6.39137 7.59832 5.52249 7.31438 4.6821 7.04154C2.93145 6.47012 2.42361 6.16915 2.42361 5.26778C2.42361 4.26375 3.63551 3.90652 4.67298 3.90652C5.42854 3.90652 6.29782 4.15945 6.83766 4.53429L7.90792 2.74967C7.20238 2.25722 6.23675 1.92131 5.28323 1.81706V0.150574H3.30893V1.93392C1.55394 2.34958 0.448392 3.58454 0.448392 5.26778C0.448392 6.44662 0.903369 7.3815 1.79811 8.04089C2.47863 8.54429 3.30858 8.81459 4.1103 9.0763C5.82745 9.63511 6.52476 9.97564 6.51682 11.1034L6.51678 11.1117C6.51678 12.0582 5.35174 12.3947 4.35363 12.3947C3.4108 12.3947 2.38552 11.9498 1.80434 11.2883L0.370056 12.749C1.10607 13.5872 2.17541 14.1797 3.30888 14.412V16.1506H5.28323V14.4494C7.23337 14.1489 8.48854 12.8848 8.49047 11.1165Z" fill="white"/>
</svg>
