<svg width="12" height="15" viewBox="0 0 12 15" fill="none" xmlns="http://www.w3.org/2000/svg">
<path d="M6.0512 0C3.13895 0 0.769737 2.40645 0.769737 5.36423V9.63592C0.769737 12.5937 3.13895 15 6.0512 15C8.96328 15 11.3327 12.601 11.3327 9.65232V5.36423C11.3327 2.40645 8.96328 0 6.0512 0ZM10.3393 9.65232C10.3393 12.0533 8.41575 14.0066 6.0512 14.0066C3.6868 14.0066 1.76314 12.0459 1.76314 9.63577V5.36423C1.76314 2.95412 3.6868 0.993369 6.0512 0.993369C8.41578 0.993369 10.3393 2.95412 10.3393 5.36423V9.65232Z" fill="white"/>
<path d="M6.05134 4.10596C5.777 4.10596 5.55464 4.32832 5.55464 4.60266V6.34107C5.55464 6.61541 5.777 6.83777 6.05134 6.83777C6.32567 6.83777 6.54803 6.61541 6.54803 6.34107V4.60266C6.54803 4.32832 6.32567 4.10596 6.05134 4.10596Z" fill="white"/>
</svg>
