<svg width="29" height="31" viewBox="0 0 29 31" fill="none" xmlns="http://www.w3.org/2000/svg">
<path d="M15.8565 29.9646C16.4366 30.5599 17.288 30.77 18.0795 30.5133C18.8709 30.2559 19.4359 29.5856 19.5558 28.762L20.6198 21.4396C20.6652 21.1278 20.8608 20.8583 21.1436 20.719L27.7781 17.4454C28.5235 17.0778 28.9868 16.3317 28.9868 15.5003C28.9868 14.6695 28.5235 13.9234 27.7781 13.5559L21.143 10.2816C20.8602 10.1424 20.6646 9.87227 20.6192 9.56041L19.5552 2.23802C19.4359 1.41507 18.8703 0.744114 18.0789 0.486752C17.2874 0.229996 16.436 0.440124 15.8559 1.03539L10.6917 6.3334C10.4713 6.55927 10.1539 6.66282 9.8439 6.60953L2.55179 5.35967C1.9099 5.24885 1.28557 5.41719 0.793251 5.83261C0.0260102 6.47813 -0.207735 7.60507 0.26581 8.50614L3.709 15.0546C3.85252 15.3283 3.85131 15.6729 3.709 15.946L0.265809 22.4951C0.0980711 22.8136 0.0132932 23.1533 0.0132932 23.504C0.0132932 24.144 0.297906 24.7508 0.79325 25.168C1.28557 25.584 1.91111 25.7518 2.55179 25.641L9.8439 24.3905C10.1545 24.3372 10.4713 24.4408 10.6917 24.6666L15.8565 29.9646Z" fill="white"/>
</svg>
