<svg width="15" height="15" viewBox="0 0 15 15" fill="none" xmlns="http://www.w3.org/2000/svg">
<path d="M13.9936 11.0572L8.99103 1.34808C8.17392 -0.255837 6.10764 -0.255837 5.29348 1.34808L0.287962 11.0572C-0.529144 12.6611 0.48783 14.6537 2.13674 14.6537H12.1272C13.7761 14.6537 14.8107 12.6413 13.9936 11.0572ZM7.13931 12.4997C6.70431 12.4997 6.34278 12.0946 6.34278 11.6072C6.34278 11.1198 6.70431 10.7147 7.13931 10.7147C7.57432 10.7147 7.93585 11.1198 7.91821 11.6303C7.93879 12.0946 7.55669 12.4997 7.13931 12.4997ZM7.8653 6.72959C7.83003 7.42122 7.79182 8.10955 7.75655 8.80118C7.73892 9.02513 7.73892 9.22933 7.73892 9.44999C7.72128 9.81556 7.46557 10.0988 7.13931 10.0988C6.81306 10.0988 6.56029 9.83532 6.53971 9.46975C6.4868 8.39279 6.43096 7.33559 6.37805 6.25863C6.36042 5.97539 6.34278 5.68886 6.32221 5.40562C6.32221 4.93795 6.55735 4.55261 6.93945 4.43076C7.32155 4.32866 7.70071 4.53285 7.8653 4.93795C7.92115 5.07957 7.93879 5.22119 7.93879 5.38586C7.92115 5.83706 7.88294 6.28497 7.8653 6.72959Z" fill="white"/>
</svg>
